<?xml version="1.0" standalone="no"?>
<!DOCTYPE svg PUBLIC "-//W3C//DTD SVG 1.1//EN" "http://www.w3.org/Graphics/SVG/1.1/DTD/svg11.dtd" >
<svg xmlns="http://www.w3.org/2000/svg">
<metadata>Generated by IcoMoon</metadata>
<defs>
<font id="icomoon" horiz-adv-x="1024">
<font-face units-per-em="1024" ascent="960" descent="-64" />
<missing-glyph horiz-adv-x="1024" />
<glyph unicode="&#x20;" horiz-adv-x="512" d="" />
<glyph unicode="&#xe900;" glyph-name="cart" horiz-adv-x="1138" d="M966.466 234.515l-18.318 4.892h-600.709l20.442-75.852h656.119v-37.926h-682.667v10.695l-5.158-1.365-27.989 104.448h-4.779v17.825l-178.252 664.841h-125.156v37.926h151.704v-10.695l5.158 1.365 38.153-142.374h885.229l1.289 4.892 36.636-9.785zM205.179 770.37l132.096-493.037h601.353l131.489 493.037h-864.939zM455.111 87.704c41.892 0 75.852-33.96 75.852-75.852s-33.96-75.852-75.852-75.852c-41.892 0-75.852 33.96-75.852 75.852s33.96 75.852 75.852 75.852zM455.111-26.074c20.946 0 37.926 16.98 37.926 37.926s-16.98 37.926-37.926 37.926c-20.946 0-37.926-16.98-37.926-37.926s16.98-37.926 37.926-37.926zM872.296 87.704c41.892 0 75.852-33.96 75.852-75.852s-33.96-75.852-75.852-75.852c-41.892 0-75.852 33.96-75.852 75.852s33.96 75.852 75.852 75.852zM872.296-26.074c20.946 0 37.926 16.98 37.926 37.926s-16.98 37.926-37.926 37.926c-20.946 0-37.926-16.98-37.926-37.926s16.98-37.926 37.926-37.926z" />
<glyph unicode="&#xe901;" glyph-name="gear" d="M1024 559.304v-222.609h-150.973c-8.051-25.019-17.372-46.448-28.502-66.745l108.24-105.287-157.429-157.429-106.852 106.852c-18.481-10.318-40.044-19.746-62.55-27.084l-2.63-151.003h-222.609v150.261c-25.153 8.077-46.73 17.505-67.134 28.795l-104.942-107.822-157.384 157.429 107.253 107.253c-10.142 18.331-19.463 39.76-26.759 62.105l-151.729 2.674v222.609h150.973c8.051 25.019 17.372 46.448 28.502 66.745l-108.24 105.287 157.429 157.429 106.808-106.852c18.495 10.321 40.072 19.749 62.595 27.085l2.63 151.002h222.609v-150.261c25.152-8.077 46.73-17.504 67.134-28.795l104.943 107.821 157.384-157.429-107.253-107.253c10.142-18.331 19.463-39.76 26.759-62.104l151.729-2.675zM889.767 731.336l-94.431 94.431-99.907-99.907c-33.284 22.742-72.386 39.862-114.48 48.938l-2.167 140.68h-133.565v-140.288c-44.261-9.469-83.363-26.589-117.786-50.063l-98.768 100.64-94.431-94.431 100.129-100.129c-22.519-33.251-39.509-72.269-48.577-114.235l-141.263-2.189v-133.565h140.867c9.464-44.156 26.454-83.174 49.723-117.6l-100.878-98.954 94.431-94.431 99.907 99.907c33.284-22.742 72.386-39.862 114.48-48.938l2.167-140.68h133.565v140.288c44.261 9.469 83.363 26.589 117.786 50.063l98.768-100.64 94.431 94.431-100.129 100.129c22.519 33.251 39.509 72.269 48.577 114.235l141.263 2.189v133.565h-140.867c-9.466 44.156-26.456 83.174-49.723 117.601zM512 203.13c-135.238 0-244.87 109.632-244.87 244.87s109.632 244.87 244.87 244.87c135.238 0 244.87-109.632 244.87-244.87s-109.632-244.87-244.87-244.87zM512 648.348c-110.649 0-200.348-89.699-200.348-200.348s89.699-200.348 200.348-200.348c110.649 0 200.348 89.699 200.348 200.348s-89.699 200.348-200.348 200.348z" />
<glyph unicode="&#xe902;" glyph-name="account-5dmax" horiz-adv-x="973" d="M0-64v123.461c0 80.218 65.030 145.248 145.248 145.248h682.667c80.218 0 145.248-65.030 145.248-145.248v-123.461h-973.163zM511.056 368.244c-163.409 0-295.878 132.469-295.878 295.878s132.469 295.878 295.878 295.878c163.409 0 295.878-132.469 295.878-295.878-0.012-163.404-132.474-295.866-295.877-295.878z" />
<glyph unicode="&#xe903;" glyph-name="episode-5dmax" horiz-adv-x="1501" d="M1160.202-59.556h-1153.571v675.283h1153.571v-675.283zM1329.023 784.558v-619.023h-84.316v534.608h-984.849v84.415h1069.205zM1497.893 953.379v-534.608h-84.415v450.192h-900.384v84.415h984.8z" />
<glyph unicode="&#xe904;" glyph-name="film-5dmax" horiz-adv-x="1081" d="M1078.902-57.555v593.555l-254.403-197.861v-169.597l254.403-226.096zM767.971 27.208v424h-593.634v-423.965h593.634zM230.908 507.743c-124.887 0-226.128 101.239-226.132 226.123 0 0.015 0 0.030 0 0.045 0 124.889 101.243 226.132 226.132 226.132s226.132-101.243 226.132-226.132c0-124.889-101.243-226.132-226.132-226.132zM711.437 507.743c-124.887 0-226.128 101.239-226.132 226.123 0 0.015 0 0.030 0 0.045 0 124.889 101.243 226.132 226.132 226.132s226.132-101.243 226.132-226.132c0-124.889-101.243-226.132-226.132-226.132zM230.908 649.069c46.821 0.016 84.77 37.976 84.77 84.799 0 46.833-37.966 84.799-84.799 84.799s-84.799-37.966-84.799-84.799c0-46.833 37.966-84.799 84.799-84.799 0.010 0 0.020 0 0.030 0zM711.437 649.069c46.833 0 84.799 37.966 84.799 84.799s-37.966 84.799-84.799 84.799c-46.833 0-84.799-37.966-84.799-84.799s37.966-84.799 84.799-84.799z" />
<glyph unicode="&#xe905;" glyph-name="home-5dmax" horiz-adv-x="922" d="M2.623 506.179v-567.138h357.352v348.885h204.249v-348.885h357.376v567.138l-459.485 448.575z" />
<glyph unicode="&#xe906;" glyph-name="list-5dmax" horiz-adv-x="1415" d="M97.744-60.094c0.003 0 0.007 0 0.011 0 53.989 0 97.755 43.766 97.755 97.755s-43.766 97.755-97.755 97.755c-53.989 0-97.755-43.766-97.755-97.755 0 0 0 0 0 0 0-53.985 43.76-97.749 97.744-97.755zM1338.294-40.543h-917.145c-0.253-0.003-0.551-0.005-0.85-0.005-37.792 0-68.429 30.636-68.429 68.429s30.636 68.429 68.429 68.429c0.299 0 0.597-0.002 0.895-0.006h917.1c0.253 0.003 0.551 0.005 0.85 0.005 37.792 0 68.429-30.636 68.429-68.429s-30.636-68.429-68.429-68.429c-0.299 0-0.597 0.002-0.895 0.006zM97.744 330.905c53.983 0 97.744 43.762 97.744 97.744s-43.762 97.744-97.744 97.744c-53.983 0-97.744-43.762-97.744-97.744s43.762-97.744 97.744-97.744zM1338.294 369.965h-917.145c-0.253-0.003-0.551-0.005-0.85-0.005-37.792 0-68.429 30.636-68.429 68.429s30.636 68.429 68.429 68.429c0.299 0 0.597-0.002 0.895-0.006h917.1c0.506 0.013 1.102 0.021 1.7 0.021 37.792 0 68.429-30.636 68.429-68.429s-30.636-68.429-68.429-68.429c-0.598 0-1.194 0.008-1.788 0.023zM97.744 760.985c53.983 0 97.744 43.762 97.744 97.744s-43.762 97.744-97.744 97.744c-53.979 0-97.738-43.756-97.744-97.733 0-0.004 0-0.007 0-0.011 0-53.983 43.762-97.744 97.744-97.744zM1338.294 780.536h-917.145c-0.253-0.003-0.551-0.005-0.85-0.005-37.792 0-68.429 30.636-68.429 68.429s30.636 68.429 68.429 68.429c0.299 0 0.597-0.002 0.895-0.006h917.1c0.253 0.003 0.551 0.005 0.85 0.005 37.792 0 68.429-30.636 68.429-68.429s-30.636-68.429-68.429-68.429c-0.299 0-0.597 0.002-0.895 0.006z" />
<glyph unicode="&#xe907;" glyph-name="logout-5dmax" horiz-adv-x="855" d="M725.873-64h-531.443c-71.587 0-129.62 58.033-129.62 129.62v194.515l77.772-77.772v-123.223c0-21.476 17.41-38.886 38.886-38.886h544.405c21.476 0 38.886 17.41 38.886 38.886v784.203c0 21.476-17.41 38.886-38.886 38.886h-544.405c-21.476 0-38.886-17.41-38.886-38.886v-129.705l-77.772-77.772v194.515c0 71.587 58.033 129.62 129.62 129.62h531.443c71.587 0 129.62-58.033 129.62-129.62v-764.759c0-71.587-58.033-129.62-129.62-129.62zM297.932 194.061l-294.594 255.313 294.594 255.313s39.281 11.018 39.281-39.281v-98.194h235.669c21.661-0.084 39.197-17.621 39.281-39.273v-157.121c-0.084-21.661-17.621-39.197-39.273-39.281h-235.684v-99.412c0-52.788-39.275-38.063-39.275-38.063z" />
<glyph unicode="&#xe908;" glyph-name="package-5dmax" d="M509.455 954.903c0.005 0 0.011 0 0.016 0 281.352 0 509.432-228.081 509.432-509.432 0-0.008 0-0.016 0-0.023 0-281.364-228.091-509.455-509.455-509.455s-509.455 228.091-509.455 509.455c0 281.364 228.091 509.455 509.455 509.455 0.003 0 0.006 0 0.008 0zM523.914 143.65c0.143-0.005 0.312-0.007 0.481-0.007 8.783 0 15.902 7.12 15.903 15.902v58.972c85.504 14.81 132.127 71.206 132.18 137.216 0 66.705-35.45 107.497-123.69 138.653-63.029 23.743-88.989 39.302-88.989 63.786 0 20.77 15.589 41.548 63.786 41.548 0.278 0.001 0.607 0.002 0.937 0.002 26.502 0 51.943-4.54 75.589-12.886 1.46-0.595 4.977-1.221 8.64-1.221 14.61 0 26.893 9.961 30.429 23.461l5.681 22.564c0.604 2.309 0.95 4.959 0.95 7.691 0 13.979-9.077 25.837-21.658 30.003-24.079 7.847-51.585 12.69-80.11 13.452l-0.39 48.579c0.008 0.195 0.013 0.424 0.013 0.654 0 8.999-7.071 16.347-15.96 16.791l-39.395 0.002c-9.424-0.339-16.953-7.991-17.095-17.433v-53.797c-78.932-15.612-125.111-66.759-125.111-132.012 0-71.94 54.341-109.010 133.685-135.703 54.891-18.554 78.619-36.352 78.619-64.535 0-29.665-28.932-45.981-71.191-45.981-32.673 0.277-63.766 6.705-92.287 18.181-1.672 0.739-5.58 1.518-9.67 1.518-14.62 0-26.915-9.953-30.48-23.452l-6.453-25.186c-0.622-2.339-0.98-5.024-0.98-7.793 0-13.372 8.338-24.796 20.099-29.357 29.845-11.168 64.095-18.315 99.789-19.916l0.724-53.809c0.053-8.797 7.197-15.908 16.002-15.908 0.229 0 0.456 0.005 0.682 0.014l39.277-0.001z" />
<glyph unicode="&#xe909;" glyph-name="author-mybolero" horiz-adv-x="1117" d="M13.808-46.933c14.919 231.22 171.648 422.178 383.482 487.697l3.869 1.030 123.252-215.661h68.267l123.252 215.661c215.703-66.55 372.432-257.508 387.268-487.117l0.083-1.61h-1089.474zM558.545 465.067c-131.959 0-238.933 106.974-238.933 238.933s106.974 238.933 238.933 238.933c131.959 0 238.933-106.974 238.933-238.933v0c0-131.959-106.974-238.933-238.933-238.933v0z" />
<glyph unicode="&#xe90a;" glyph-name="micro-mybolero" horiz-adv-x="735" d="M698.946 595.036c-28.714-43.83-71.42-76.444-121.675-91.723l-1.573-0.411-285.145 185.16c-1.179 8.618-1.852 18.577-1.852 28.694 0 123.259 99.921 223.179 223.179 223.179s223.179-99.921 223.179-223.179c0-45.265-13.476-87.383-36.634-122.56l0.52 0.84zM433.231 282.217l-286.195 185.895 92.318 190.464 330.306-214.515zM184.451 381.177l154.256-100.116-208.056-271.964-51.095 33.188-0.788-1.26c-35-164.103 328.625 23.946 446.359 78.769 120.333 48.128 177.231-74.384 183.795-105.026h-26.256c-2.179 13.128-67.82 100.641-131.282 78.769-459.697-249.173-539.701-139.842-501.051-32.269l-29.775 19.325z" />
<glyph unicode="&#xe90b;" glyph-name="film" horiz-adv-x="1224" d="M1090.783 960h-957.217c-73.761 0-133.565-59.804-133.565-133.565v-756.87c0-73.761 59.804-133.565 133.565-133.565h957.217c73.761 0 133.565 59.804 133.565 133.565v756.87c0 73.761-59.804 133.565-133.565 133.565zM1168.696 69.565c0-42.952-34.961-77.913-77.913-77.913h-957.217c-42.952 0-77.913 34.961-77.913 77.913v756.87c0 42.963 34.961 77.913 77.913 77.913h957.217c42.952 0 77.913-34.95 77.913-77.913v-756.87zM144.696 670.609h189.217v144.696h-189.217v-144.696zM200.348 759.652h77.913v-33.391h-77.913v33.391zM389.565 670.609h200.348v144.696h-200.348v-144.696zM445.217 759.652h89.043v-33.391h-89.043v33.391zM656.696 670.609h200.348v144.696h-200.348v-144.696zM712.348 759.652h89.043v-33.391h-89.043v33.391zM912.696 670.609h178.087v144.696h-178.087v-144.696zM968.348 759.652h66.783v-33.391h-66.783v33.391zM144.696 80.696h189.217v144.696h-189.217v-144.696zM200.348 169.739h77.913v-33.391h-77.913v33.391zM389.565 80.696h200.348v144.696h-200.348v-144.696zM445.217 169.739h89.043v-33.391h-89.043v33.391zM656.696 80.696h200.348v144.696h-200.348v-144.696zM712.348 169.739h89.043v-33.391h-89.043v33.391zM912.696 80.696h178.087v144.696h-178.087v-144.696zM968.348 169.739h66.783v-33.391h-66.783v33.391z" />
<glyph unicode="&#xe90c;" glyph-name="home" horiz-adv-x="1272" d="M1254.303 380.265l-41.143-49.907c-15.932-19.234-39.82-31.394-66.549-31.394-20.899 0-40.062 7.435-54.987 19.803l0.143-0.115-3.094 2.576v-320.555c0-35.718-28.955-64.674-64.674-64.674v0h-280.253c-35.718 0-64.674 28.955-64.674 64.674v0 204.8h-97.011v-204.8c0-35.718-28.955-64.674-64.674-64.674v0h-280.253c-35.718 0-64.674 28.955-64.674 64.674v0 313.57c-13.303-8.881-29.661-14.172-47.254-14.172-26.593 0-50.363 12.089-66.113 31.072l-0.114 0.142-40.96 49.691c-12.178 14.72-19.565 33.79-19.565 54.586 0 26.644 12.126 50.455 31.16 66.216l0.143 0.115 530.583 437.507c14.71 12.213 33.787 19.623 54.595 19.623 6.4 0 12.636-0.701 18.635-2.030l-0.57 0.106c6.772 1.915 14.548 3.016 22.582 3.016 20.863 0 39.991-7.424 54.889-19.773l-0.143 0.115 98.088-80.842v35.711c0 35.718 28.955 64.674 64.674 64.674v0h150.905c35.718 0 64.674-28.955 64.674-64.674v0-266.779l153.934-126.901c19.227-15.932 31.382-39.816 31.382-66.539 0-20.898-7.434-40.061-19.802-54.986l0.115 0.143zM226.358 22.232c0-17.859 14.478-32.337 32.337-32.337v0h237.137c17.859 0 32.337 14.478 32.337 32.337v0 237.137h204.8v-237.137c0-17.859 14.478-32.337 32.337-32.337v0h237.137c17.859 0 32.337 14.478 32.337 32.337v0 343.428l-399.64 329.426-408.781-337.058v-335.797zM1208.32 460.072l-173.541 143.058v270.638c0 17.859-14.478 32.337-32.337 32.337v0h-107.789c-17.859 0-32.337-14.478-32.337-32.337v0-128.474l-202.644 164.853c-5.501 4.547-12.625 7.305-20.394 7.305-2.127 0-4.206-0.207-6.218-0.601l0.203 0.033c-1.813 0.363-3.896 0.571-6.029 0.571-7.752 0-14.864-2.746-20.413-7.319l0.055 0.044-543-449.676c-7.19-5.955-11.736-14.884-11.736-24.874 0-7.8 2.771-14.952 7.381-20.527l-0.044 0.054 40.96-49.691c5.95-7.165 14.861-11.693 24.829-11.693 7.821 0 14.991 2.788 20.571 7.424l-0.053-0.043 487.489 403.133 492.781-404.027c5.543-4.595 12.729-7.383 20.566-7.383 10.022 0 18.979 4.559 24.91 11.716l0.043 0.054 41.132 49.907c4.595 5.543 7.383 12.729 7.383 20.566 0 10.022-4.559 18.979-11.716 24.91l-0.054 0.043z" />
<glyph unicode="&#xe90d;" glyph-name="play" horiz-adv-x="934" d="M862.298 537.448l-699.122 396.198c-86.972 49.197-157.55 7.787-157.55-92.025v-787.242c0-99.812 70.397-141.222 157.37-92.025l700.652 396.198c86.984 49.197 85.622 129.699-1.35 178.896zM834.65 407.895l-701.62-396.164c-19.557-11.073-31.755-13.391-40.004-13.391-28.616 0-31.136 35.109-31.136 56.050v787.231c0 20.93 2.543 56.050 31.283 56.050 8.26 0 21.346-2.318 40.87-13.368l700.709-396.198c22.224-12.569 36.369-28.391 36.369-40.296 0-9.385-9.734-24.801-36.47-39.913z" />
<glyph unicode="&#xe90e;" glyph-name="search" d="M834.725 604.782c-13.806 84.809-80.768 151.753-165.522 165.742-4.443 1.92-9.344 3.017-14.501 3.017-20.206 0-36.571-16.366-36.571-36.571 0-18.578 13.915-33.755 31.854-36.096l-0.183 0.603c58.24-6.071 104.85-52.334 113.134-107.191h1.463c0-18.286 16.366-38.363 36.571-38.363s36.571 15.47 36.571 35.675c0 4.992-1.006 8.85-2.816 13.184zM898.523 834.523c-142.811 142.811-374.382 142.811-517.193 0-120.448-120.448-138.898-303.854-56.174-444.069l-280.009-280.009c-35.712-35.712-35.712-93.586 0-129.298s93.586-35.712 129.298 0l280.009 280.009c140.215-82.725 323.621-64.274 444.069 56.174 142.811 142.811 142.811 374.363 0 517.193zM833.865 381.97c-106.953-106.953-280.96-106.953-387.895 0-106.953 106.935-106.953 280.942 0 387.895s280.96 106.935 387.895 0c106.953-106.935 106.953-280.942 0-387.895z" />
<glyph unicode="&#xe90f;" glyph-name="view" horiz-adv-x="1558" d="M779.13 948.87c-424.159 0-779.13-500.87-779.13-500.87s354.972-500.87 779.13-500.87 779.13 500.87 779.13 500.87-354.972 500.87-779.13 500.87zM779.13 2.783c-329.795 0-624.083 337.987-709.142 445.217 85.048 107.219 379.347 445.217 709.142 445.217s624.083-337.987 709.142-445.217c-85.048-107.219-379.347-445.217-709.142-445.217zM786.554 762.68c-172.121 0-311.652-139.531-311.652-311.652s139.531-311.652 311.652-311.652c172.121 0 311.652 139.531 311.652 311.652s-139.531 311.652-311.652 311.652zM786.554 195.039c-141.167 0-256 114.833-256 256s114.833 256 256 256 256-114.833 256-256-114.833-256-256-256zM786.554 651.386c-110.47 0-200.348-89.878-200.348-200.348s89.878-200.348 200.348-200.348 200.348 89.878 200.348 200.348-89.878 200.348-200.348 200.348zM786.554 306.343c-79.783 0-144.696 64.913-144.696 144.696s64.913 144.696 144.696 144.696 144.696-64.913 144.696-144.696-64.913-144.696-144.696-144.696z" />
<glyph unicode="&#xe910;" glyph-name="music" horiz-adv-x="940" d="M940.408 855.51c0 57.71-46.78 104.49-104.49 104.49l-449.306-135.837c-68.389-25.61-104.49-67.772-104.49-146.286v-423.508c-18.369 3.5-37.564 5.548-57.469 5.548-124.071 0-224.653-72.516-224.653-161.959s100.582-161.959 224.653-161.959c121.626 0 220.432 69.726 224.287 156.735h0.366v348.944l323.918 96.235v-147.707c-18.369 3.5-37.564 5.548-57.469 5.548-124.071 0-224.653-72.516-224.653-161.959s100.582-161.959 224.653-161.959 224.653 72.516 224.653 161.959c0 1.766-0.293 3.48-0.366 5.224h0.366v616.49zM888.163 291.265c0 0-0.146-57.428-0.010-58.796-1.16-58.901-79.642-108.387-172.398-108.387-93.456 0-172.408 50.249-172.408 109.714s78.952 109.714 172.408 109.714c15.517 0 31.566-1.557 47.689-4.629l62.025-11.807v280.858l-428.408-127.269v-379.496l-0.313-6.113c-2.57-57.898-81.377-106.809-172.095-106.809-93.456 0-172.408 50.249-172.408 109.714s78.952 109.714 172.408 109.714c15.527 0 31.566-1.557 47.689-4.629l62.025-11.807v486.64c0 51.869 18.108 77.354 69.057 96.789l438.92 132.692c25.788-3.176 45.819-25.213 45.819-51.848v-564.245z" />
<glyph unicode="&#xe911;" glyph-name="binocular" horiz-adv-x="1410" d="M1076.039-55.103c-156.186 0.028-286.559 110.512-317.257 257.587l-0.368 2.106c-15.234-9.288-33.662-14.786-53.374-14.786s-38.139 5.498-53.833 15.045l0.459-0.259c-31.165-148.984-161.432-259.277-317.459-259.277-178.933 0-323.987 145.054-323.987 323.987 0 82.624 30.928 158.023 81.839 215.254l-0.286-0.328 129.377 243.729c6.903 15.838 16.935 29.159 29.402 39.687l0.159 0.131c14.169 7.652 30.899 14.91 48.272 20.769l2.34 0.685-1.947 1.074 56.135 101.191c10.864 19.584 26.947 35.128 46.383 45.037l0.621 0.287c21.628 9.052 46.759 14.311 73.119 14.311 52.79 0 100.655-21.090 135.627-55.305l-0.035 0.034c11.428-14.89 19.056-33.252 21.13-53.262l0.038-0.456v-123.316c2.048-1.88 4.163-3.693 6.228-5.573 17.914 14.705 41.070 23.62 66.308 23.62s48.395-8.914 66.492-23.766l-0.184 0.146c2.082 1.897 4.23 3.727 6.295 5.624v123.199c2.112 20.466 9.741 38.828 21.355 53.971l-0.186-0.253c34.937 34.18 82.802 55.271 135.592 55.271 26.36 0 51.492-5.258 74.403-14.784l-1.284 0.473c20.056-10.197 36.14-25.741 46.718-44.766l0.285-0.559 56.135-101.191-1.93-1.074c19.714-6.544 36.444-13.801 52.396-22.324l-1.784 0.87c12.627-10.66 22.659-23.98 29.292-39.129l0.269-0.69 129.377-243.729c50.676-56.941 81.637-132.4 81.637-215.091 0-178.894-144.908-323.943-323.748-324.171h-0.022zM705.049 250.167c0.005 0 0.011 0 0.017 0 25.876 0 46.852 20.976 46.852 46.852s-20.976 46.852-46.852 46.852c-25.876 0-46.852-20.976-46.852-46.852v0c0.019-25.862 20.975-46.824 46.833-46.852h0.003zM68.994 269.824c0-0.020 0-0.043 0-0.067 0-146.012 118.352-264.381 264.357-264.41h0.708c145.518 0.229 263.411 118.175 263.554 263.691v0.014c0 0.134 0 0.252 0 0.369s0 0.252 0 0.386c0.032 1.538 0.051 3.351 0.051 5.168 0 146.002-118.358 264.36-264.36 264.36s-264.36-118.358-264.36-264.36c0-1.811 0.018-3.619 0.054-5.421l-0.004 0.27zM572.030 849.526c-24.314 25.365-58.473 41.127-96.313 41.127-15.313 0-30.023-2.581-43.719-7.333l0.936 0.283c-9.619-3.454-17.482-9.84-22.706-18.067l-0.107-0.18-33.574-60.567c10.072 0.906 20.262 1.528 30.602 1.528 0.083 0 0.182 0 0.281 0 60.539 0 117.31-16.134 166.248-44.336l-1.614 0.858v86.687zM597.714 668.748c-49.373 47.706-116.701 77.102-190.895 77.102-44.931 0-87.344-10.781-124.794-29.896l1.556 0.721-80.107-150.914c38.422 17.34 83.298 27.443 130.534 27.443 108.29 0 204.179-53.098 263.050-134.679l0.656-0.955v211.179zM705.049 676.302c-25.861-0.029-46.816-20.99-46.835-46.85v-236.361c13.639 7.103 29.784 11.269 46.903 11.269s33.263-4.166 47.477-11.54l-0.574 0.271v236.41h-0.218c-0.048 25.811-20.944 46.726-46.744 46.802h-0.007zM999.978 865.356c-5.332 8.407-13.194 14.794-22.505 18.15l-0.309 0.097c-12.767 4.474-27.485 7.058-42.808 7.058-37.836 0-71.992-15.759-96.261-41.072l-0.045-0.047v-86.687c47.323 27.344 104.094 43.478 164.633 43.478 0.099 0 0.197 0 0.296 0h-0.015c10.341 0 20.514-0.621 30.602-1.528zM1126.518 716.691c-35.891 18.391-78.3 29.17-123.226 29.17-74.2 0-141.533-29.401-190.985-77.188l0.078 0.075v-211.145c59.527 82.536 155.416 135.634 263.706 135.634 47.236 0 92.112-10.103 132.586-28.266l-2.051 0.823zM1076.744 534.285c-146.008-0.029-264.36-118.398-264.36-264.41 0-0.018 0-0.035 0-0.053v0.003c0-0.134 0-0.252 0-0.386s0-0.252 0-0.369c0.134-145.572 118.088-263.55 263.639-263.722h0.772c145.147 1.208 262.345 119.152 262.345 264.469 0 145.335-117.227 263.29-262.284 264.468l-0.112 0.001zM1061.485 73.35c-16.688 0-30.216 13.528-30.216 30.216s13.528 30.216 30.216 30.216v0c85.494 0.115 154.766 69.41 154.842 154.902v0.007c0 16.688 13.528 30.216 30.216 30.216s30.216-13.528 30.216-30.216v0c-0.124-118.857-96.424-215.18-215.26-215.342h-0.015zM380.173 103.567c0-16.688-13.528-30.216-30.216-30.216v0c-118.85 0.172-215.144 96.501-215.258 215.348v0.011c0 16.688 13.528 30.216 30.216 30.216s30.216-13.528 30.216-30.216v0c0.076-85.5 69.348-154.795 154.831-154.909h0.011c16.688 0 30.216-13.528 30.216-30.216v0z" />
<glyph unicode="&#xe912;" glyph-name="dics" d="M512 582.737c-75.453 0-134.737-59.284-134.737-134.737s59.284-134.737 134.737-134.737 134.737 59.284 134.737 134.737c0 75.453-59.284 134.737-134.737 134.737zM512 367.158c-43.116 0-80.842 37.726-80.842 80.842s37.726 80.842 80.842 80.842 80.842-32.337 80.842-80.842-37.726-80.842-80.842-80.842zM592.842 679.747c70.063-21.558 118.568-75.453 145.516-145.516h26.947c-26.947 80.842-91.621 145.516-172.463 172.463v-26.947zM431.158 221.642c-70.063 26.947-123.958 80.842-145.516 150.905h-32.337c26.947-86.232 91.621-150.905 177.853-177.853v26.947zM512 906.105c-253.305 0-458.105-204.8-458.105-458.105s204.8-458.105 458.105-458.105 458.105 204.8 458.105 458.105c0 253.305-204.8 458.105-458.105 458.105zM512 43.789c-220.968 0-404.211 183.242-404.211 404.211s183.242 404.211 404.211 404.211 404.211-177.853 404.211-404.211-183.242-404.211-404.211-404.211z" />
<glyph unicode="&#xe913;" glyph-name="ring" d="M398.821 819.874v-625.179c-32.337 26.947-80.842 43.116-134.737 43.116-107.789 0-188.632-59.284-188.632-134.737s80.842-134.737 188.632-134.737c91.621 0 161.684 43.116 183.242 102.4l5.389 53.895v436.547l431.158 86.232v-291.032c-32.337 26.947-80.842 43.116-134.737 43.116-107.789 0-188.632-59.284-188.632-134.737s80.842-134.737 188.632-134.737c91.621 0 161.684 43.116 183.242 102.4l5.389 53.895v646.737l-538.947-113.179zM264.084 16.842c-75.453 0-134.737 37.726-134.737 80.842s59.284 80.842 134.737 80.842 134.737-37.726 134.737-80.842-64.674-80.842-134.737-80.842zM749.137 178.526c-75.453 0-134.737 37.726-134.737 80.842s59.284 80.842 134.737 80.842 134.737-37.726 134.737-80.842-64.674-80.842-134.737-80.842zM883.874 701.305l-431.158-86.232v161.684l431.158 86.232v-161.684z" />
<glyph unicode="&#xe914;" glyph-name="ringback" d="M458.362 638.171c0 53.638 43.886 97.524 97.524 97.524v48.762c-82.895 0-146.286-63.39-146.286-146.286h48.762zM585.143 886.857v48.762c-175.543 0-316.952-141.41-316.952-316.952h48.762c0 146.286 121.905 268.19 268.19 268.19zM555.886 657.676v-48.762c0 0 0 0 0 0v-404.724c-34.133 29.257-87.771 53.638-146.286 53.638-107.276 0-195.048-63.39-195.048-146.286s87.771-146.286 195.048-146.286c102.4 0 185.295 58.514 195.048 131.657l4.876 53.638v438.857c78.019-39.010 131.657-112.152 146.286-195.048h48.762c-19.505 131.657-117.029 238.933-248.686 263.314zM409.6 9.143c-78.019 0-146.286 43.886-146.286 97.524s68.267 97.524 146.286 97.524 146.286-43.886 146.286-97.524-68.267-97.524-146.286-97.524z" />
<glyph unicode="&#xe915;" glyph-name="lightbolt" horiz-adv-x="624" d="M615.412 848.961c-5.517 14.643-18.171 25.43-33.606 28.208l-0.269 0.040-339.073 74.917c-3.648 0.79-7.839 1.242-12.136 1.242-24.622 0-45.775-14.85-54.992-36.082l-0.15-0.387-164.664-413.943c-2.337-5.556-3.695-12.014-3.695-18.79 0-8.495 2.135-16.491 5.897-23.482l-0.13 0.264c7.146-12.814 19.327-22.091 33.799-25.21l0.335-0.060 165.959-36.664-145.255-411.554c-2.273-4.87-3.599-10.573-3.599-16.586 0-6.258 1.436-12.18 3.998-17.456l-0.104 0.238c4.302-7.198 11.223-12.452 19.417-14.479l0.215-0.045c1.547-0.223 3.333-0.35 5.149-0.35 13.196 0 24.826 6.709 31.663 16.902l0.087 0.137 402.067 487.589c6.869 7.665 11.068 17.847 11.068 29.009 0 4.893-0.807 9.598-2.295 13.988l0.090-0.307c-5.621 14.524-18.237 25.205-33.603 27.995l-0.272 0.041-123.162 27.213 227.587 264.934c7.248 7.719 11.7 18.137 11.7 29.595 0 4.673-0.741 9.174-2.111 13.39l0.086-0.306zM320.594 561.77c-7.247-7.714-11.699-18.127-11.699-29.58 0-4.67 0.74-9.168 2.11-13.381l-0.086 0.306c5.509-14.649 18.166-25.439 33.606-28.208l0.268-0.040 124.21-27.448-302.563-366.945 102.165 289.651c1.882 5.090 2.971 10.97 2.971 17.103 0 9.044-2.367 17.535-6.516 24.887l0.131-0.253c-7.32 12.568-19.442 21.658-33.79 24.807l-0.343 0.063-164.605 36.381 161.816 406.646c0.535 0.58 1.239 0.997 2.034 1.172l0.026 0.005 317.875-70.256z" />
<glyph unicode="&#xe916;" glyph-name="price" horiz-adv-x="1036" d="M881.177 426.121l-20.255 303.092c-2.375 33.044-28.596 59.265-61.426 61.627l-0.214 0.012-107.557 7.143c9.582 16.549 20.599 30.823 33.243 43.471l-0.001-0.001c29.425 30.345 68.807 50.885 112.865 56.339l0.924 0.093c4.896 0.716 10.548 1.125 16.295 1.125 31.61 0 60.331-12.369 81.587-32.531l-0.053 0.050c51.45-51.4 40.298-146.307-25.051-211.643-5.025-5.065-8.131-12.041-8.131-19.743 0-7.739 3.136-14.746 8.206-19.818v0c5.068-5.040 12.054-8.156 19.768-8.156s14.7 3.116 19.769 8.157l-0.001-0.001c87.090 87.090 98.217 217.538 25.051 290.716-31.173 30.287-73.771 48.961-120.729 48.961-7.873 0-15.624-0.525-23.219-1.542l0.888 0.097c-58.339-6.917-109.487-33.364-147.669-72.516l-0.049-0.051c-22.285-22.181-40.558-48.37-53.649-77.398l-0.66-1.637-134.743 8.966c-2.306 0.161-4.998 0.253-7.711 0.253-32.406 0-61.752-13.102-83.029-34.298l-354.65-354.65c-25.283-25.383-40.914-60.396-40.914-99.059 0-38.738 15.692-73.812 41.065-99.211l243.087-243.087c25.398-25.373 60.471-41.064 99.209-41.064 38.689 0 73.722 15.651 99.113 40.968l354.651 354.651c21.163 21.269 34.245 50.594 34.245 82.975 0 2.713-0.092 5.405-0.273 8.072l0.020-0.361zM452.97 20.268c-15.255-15.247-36.325-24.678-59.598-24.678-23.304 0-44.4 9.455-59.659 24.739l-243.251 243.313c-15.285 15.261-24.74 36.356-24.74 59.66 0 23.273 9.43 44.343 24.678 59.598l354.653 354.653c11.18 11.158 26.613 18.058 43.657 18.058 1.384 0 2.758-0.045 4.119-0.135l-0.185 0.010 122.056-8.142-1.973-13.836c-0.92-6.707-1.445-14.459-1.445-22.332 0-46.927 18.649-89.499 48.94-120.708l-0.041 0.043c5.056-5.056 12.041-8.183 19.756-8.183 15.43 0 27.939 12.509 27.939 27.939 0 7.715-3.127 14.7-8.183 19.756v0c-20.118 21.154-32.494 49.836-32.494 81.407 0 5.802 0.418 11.505 1.225 17.083l-0.076-0.636c0.662 5.27 1.311 10.54 2.298 15.81l124.878-8.304c5.143-0.328 9.232-4.421 9.552-9.536l0.001-0.029 20.255-303.092c0.080-1.178 0.126-2.553 0.126-3.939 0-17.043-6.9-32.474-18.059-43.653l-354.653-354.653zM498.263 384.649l-43.508 43.508c-7.273 7.145-11.781 17.085-11.781 28.078 0 21.732 17.617 39.349 39.349 39.349 10.993 0 20.933-4.508 28.072-11.775l76.644-76.644c5.056-5.056 12.041-8.183 19.756-8.183 15.43 0 27.939 12.509 27.939 27.939 0 7.715-3.127 14.7-8.183 19.756l-35.128 35.103 25.687 25.687c4.793 5.012 7.743 11.821 7.743 19.319 0 15.449-12.524 27.973-27.973 27.973-7.498 0-14.307-2.95-19.33-7.753l-25.677-25.677-1.973 1.973c-17.233 17.236-41.042 27.897-67.34 27.897-52.591 0-95.225-42.634-95.225-95.225 0-26.293 10.656-50.096 27.885-67.328l43.507-43.507c7.273-7.145 11.781-17.085 11.781-28.078 0-21.732-17.617-39.349-39.349-39.349-10.993 0-20.933 4.508-28.072 11.775l-78.117 78.117c-5.091 5.29-12.231 8.575-20.139 8.575-15.428 0-27.935-12.507-27.935-27.935 0-7.902 3.281-15.037 8.554-20.118l0.009-0.008 36.589-36.589-26.224-26.224c-4.793-5.012-7.743-11.821-7.743-19.319 0-15.449 12.524-27.973 27.973-27.973 7.498 0 14.307 2.95 19.33 7.753l26.214 26.214 2.31-2.31 0.5-0.487c17.191-16.992 40.834-27.488 66.928-27.488 52.59 0 95.222 42.632 95.222 95.222 0 26.495-10.821 50.463-28.285 67.725l-0.009 0.009z" />
<glyph unicode="&#xe917;" glyph-name="time" d="M615.409 24.21c-8.441-2.121-17.057-3.994-25.6-5.588-19.272-3.874-33.584-20.665-33.584-40.799 0-13.88 6.802-26.171 17.254-33.722l0.122-0.084c6.576-4.737 14.795-7.576 23.676-7.576 2.662 0 5.264 0.255 7.783 0.742l-0.256-0.041c10.24 1.902 20.48 4.14 30.501 6.671 17.435 5.155 29.941 21.024 29.941 39.815 0 22.888-18.555 41.443-41.443 41.443-2.971 0-5.87-0.313-8.664-0.907l0.271 0.048zM919.786 580.023c2.869-8.611 8.231-15.75 15.221-20.761l0.124-0.085c6.597-4.741 14.837-7.581 23.74-7.581 4.627 0 9.074 0.767 13.222 2.181l-0.288-0.085c16.56 5.719 28.241 21.174 28.241 39.357 0 4.664-0.769 9.149-2.186 13.335l0.086-0.293c-3.248 9.904-6.861 19.851-10.708 29.52-6.16 15.388-20.945 26.059-38.223 26.059-5.502 0-10.752-1.082-15.547-3.045l0.274 0.099c-15.314-6.356-25.887-21.189-25.887-38.491 0-5.552 1.089-10.851 3.065-15.692l-0.1 0.278c3.218-8.133 6.246-16.472 8.967-24.795zM749.158 83.412c-7.314-4.827-14.76-9.509-22.309-13.883-12.409-7.365-20.596-20.694-20.596-35.935 0-13.917 6.826-26.24 17.313-33.803l0.123-0.084c6.592-4.73 14.823-7.564 23.716-7.564 7.581 0 14.681 2.060 20.771 5.65l-0.191-0.104c8.982 5.208 17.905 10.767 26.551 16.516 11.227 7.581 18.511 20.259 18.511 34.637 0 8.493-2.541 16.392-6.904 22.978l0.096-0.155c-7.417 11.288-20.022 18.638-34.343 18.638-8.475 0-16.349-2.574-22.883-6.983l0.145 0.092zM1023.532 464.194c-0.581 22.283-18.783 40.124-41.152 40.124-22.735 0-41.165-18.43-41.165-41.165 0-0.781 0.022-1.558 0.065-2.328l-0.005 0.107c0.336-8.777 0.424-17.554 0.234-26.331-0.008-0.304-0.013-0.663-0.013-1.022 0-13.919 6.853-26.238 17.368-33.767l0.125-0.085c6.337-4.552 14.204-7.35 22.714-7.547l0.048-0.001c0.224-0.004 0.488-0.007 0.753-0.007 22.548 0 40.875 18.070 41.289 40.518l0.001 0.039c0.205 10.459 0.205 21.036-0.263 31.481zM913.072 192.497c-6.786 5.178-15.386 8.296-24.715 8.296-13.445 0-25.377-6.478-32.845-16.483l-0.077-0.108c-5.222-7.022-10.723-13.941-16.355-20.612-6.124-7.21-9.848-16.626-9.848-26.911 0-12.611 5.599-23.914 14.447-31.559l0.053-0.045c0.98-0.848 1.989-1.609 3.013-2.341 6.584-4.713 14.8-7.536 23.676-7.536 12.54 0 23.764 5.636 31.278 14.512l0.050 0.060c6.729 7.958 13.283 16.238 19.529 24.62 5.161 6.861 8.266 15.524 8.266 24.913 0 13.501-6.419 25.502-16.372 33.118l-0.1 0.074zM973.575 342.396c-3.672 1.191-7.898 1.878-12.284 1.878-18.398 0-33.973-12.086-39.217-28.752l-0.079-0.291c-2.604-8.353-5.486-16.735-8.602-24.956-1.708-4.379-2.699-9.449-2.699-14.75 0-13.916 6.823-26.239 17.307-33.805l0.123-0.084c6.607-4.742 14.857-7.583 23.77-7.583 17.518 0 32.472 10.973 38.365 26.421l0.094 0.282c3.686 9.772 7.124 19.749 10.24 29.667 1.203 3.709 1.897 7.977 1.897 12.407 0 18.43-12.005 34.056-28.622 39.485l-0.294 0.083zM435.829 18.256c-39.702 7.287-75.095 19.015-108.107 34.905l2.533-1.099c-0.395 0.205-0.746 0.439-1.17 0.644-7.885 3.73-15.77 7.739-23.406 11.937h-0.117c-134.262 75.491-223.476 217.036-223.476 379.417 0 93.404 29.518 179.913 79.735 250.709l-0.907-1.346c29.189 41.481 64.175 76.542 104.235 104.909l1.339 0.9 1.463 1.039c68.077 47.814 152.674 76.412 243.951 76.412 88.85 0 171.371-27.097 239.749-73.479l-1.498 0.958-32.183-46.811c-8.938-13.034-3.438-22.528 12.215-21.109l139.688 12.595c12.272 0.645 21.978 10.752 21.978 23.127 0 2.573-0.42 5.049-1.195 7.361l0.047-0.163-37.552 136.163c-4.198 15.272-14.936 17.086-23.903 4.067l-32.183-46.914c-79.612 54.816-178.122 87.551-284.278 87.551-31.189 0-61.719-2.826-91.346-8.235l3.093 0.469q-19.763-3.452-38.971-8.353h-0.263c-0.497-0.117-0.995-0.278-1.463-0.424-115.922-30.608-212.996-98.018-280.477-188.745l-0.962-1.353c-0.585-0.702-1.2-1.463-1.755-2.165-2.341-3.174-4.652-6.407-6.919-9.655-3.716-5.31-7.314-10.752-10.869-16.208-0.439-0.658-0.775-1.317-1.156-1.989-51.21-78.576-81.667-174.745-81.667-278.028 0-8.264 0.195-16.483 0.581-24.651l-0.043 1.155c0-0.351 0-0.702 0-1.068 0.453-10.401 1.273-20.948 2.355-31.291 0-0.673 0.205-1.302 0.322-1.975 1.156-10.445 2.589-20.904 4.389-31.364 18.912-109.355 70.095-204.423 143.24-277.516l0.003-0.003 0.527-0.556s0.132-0.102 0.19-0.161c19.807-19.691 41.223-37.816 64.015-54.143l1.565-1.066c57.694-41.624 126.483-71.785 201.010-85.595l3.117-0.48c2.050-0.359 4.412-0.565 6.821-0.565 22.896 0 41.457 18.561 41.457 41.457 0 20.171-14.406 36.978-33.49 40.693l-0.262 0.042zM486.722 779.235c-18.412-0.075-33.309-15.018-33.309-33.441 0-0.036 0-0.072 0-0.108v0.006-334.263l303.44-157.989c4.423-2.359 9.674-3.745 15.248-3.745 0.003 0 0.007 0 0.010 0h-0.001c12.846 0.011 23.987 7.301 29.521 17.969l0.087 0.185c2.352 4.475 3.733 9.778 3.733 15.403 0 12.87-7.227 24.053-17.843 29.711l-0.181 0.088-267.425 139.235v293.405c0 0.039 0 0.086 0 0.132 0 18.407-14.884 33.337-33.273 33.411h-0.007z" />
<glyph unicode="&#xe918;" glyph-name="channel" d="M1001.276 720.459l-470.603 235.369c-5.389 2.755-11.756 4.369-18.5 4.369s-13.11-1.614-18.735-4.477l0.235 0.108-470.603-235.369c-13.665-6.948-22.864-20.903-22.864-37.007s9.199-30.059 22.629-36.899l0.235-0.109 470.603-235.354c5.389-2.755 11.756-4.369 18.5-4.369s13.11 1.614 18.735 4.477l-0.235-0.108 470.603 235.354c13.665 6.948 22.864 20.903 22.864 37.007s-9.199 30.059-22.629 36.899l-0.235 0.109zM512.181 494.351l-378.157 189.109 378.157 189.109 378.112-189.109zM1019.784 231.243c-6.942 13.668-20.897 22.87-37.001 22.87-6.74 0-13.103-1.612-18.726-4.471l0.235 0.108-452.111-226.123-452.111 226.108c-5.39 2.753-11.756 4.366-18.5 4.366-22.85 0-41.373-18.524-41.373-41.373 0-16.107 9.204-30.064 22.639-36.899l0.235-0.109 470.603-235.354c5.39-2.753 11.757-4.365 18.5-4.365s13.11 1.613 18.735 4.474l-0.235-0.109 470.618 235.354c13.665 6.947 22.865 20.903 22.865 37.008 0 6.749-1.616 13.12-4.481 18.749l0.109-0.235zM1019.784 466.613c-6.942 13.668-20.897 22.87-37.001 22.87-6.74 0-13.103-1.612-18.726-4.471l0.235 0.108-452.111-226.123-452.111 226.108c-5.39 2.753-11.756 4.366-18.5 4.366-22.85 0-41.373-18.524-41.373-41.373 0-16.107 9.204-30.064 22.639-36.899l0.235-0.109 470.603-235.369c5.39-2.753 11.757-4.365 18.5-4.365s13.11 1.613 18.735 4.474l-0.235-0.109 470.603 235.369c13.669 6.946 22.871 20.904 22.871 37.011 0 6.742-1.612 13.107-4.472 18.731l0.109-0.235z" />
<glyph unicode="&#xe919;" glyph-name="check" horiz-adv-x="1414" d="M1234.408 915.895l-723.797-723.895-330.923 330.996c-18.095 18.095-43.093 29.287-70.705 29.287-55.224 0-99.992-44.768-99.992-99.992 0-27.612 11.192-52.61 29.287-70.705l401.676-401.481c18.092-18.102 43.091-29.299 70.705-29.299s52.613 11.197 70.704 29.299l794.356 794.478c19.285 18.262 31.286 44.048 31.286 72.636 0 55.207-44.754 99.962-99.962 99.962-28.588 0-54.374-12.001-72.593-31.24l-0.043-0.046z" />
<glyph unicode="&#xe91a;" glyph-name="quality" d="M971.49 329.848c-29.001 0-52.51 23.51-52.51 52.51v0 131.268c0 29.001 23.51 52.51 52.51 52.51s52.51-23.51 52.51-52.51v-131.268c0-29.001-23.51-52.51-52.51-52.51v0zM818.327 132.909c-29.001 0-52.51 23.51-52.51 52.51v0 525.161c0 29.001 23.51 52.51 52.51 52.51s52.51-23.51 52.51-52.51v0-525.161c0-29.001-23.51-52.51-52.51-52.51v0zM665.163-64c-29.004 0-52.517 23.508-52.525 52.509v918.981c0.5 28.624 23.822 51.636 52.518 51.636s52.018-23.012 52.517-51.589l0.001-0.047v-918.98c0-29.001-23.51-52.51-52.51-52.51v0zM512 67.268c-28.979 0-52.476 23.475-52.51 52.447v656.492c-0.005 0.265-0.008 0.577-0.008 0.889 0 29.001 23.51 52.51 52.51 52.51s52.51-23.51 52.51-52.51c0-0.313-0.003-0.625-0.008-0.936l0.001 0.047v-656.489c-0.034-28.969-23.522-52.441-52.494-52.45h-0.001zM358.837 198.581c-29.001 0-52.51 23.51-52.51 52.51v393.818c0.5 28.624 23.822 51.636 52.518 51.636s52.018-23.012 52.517-51.589l0.001-0.047v-393.818c-0.017-28.999-23.525-52.501-52.524-52.51h-0.001zM205.673 132.909c-29.001 0-52.51 23.51-52.51 52.51v0 525.161c0 29.001 23.51 52.51 52.51 52.51s52.51-23.51 52.51-52.51v0-525.161c0-0.004 0-0.010 0-0.015 0-28.992-23.503-52.495-52.495-52.495-0.005 0-0.011 0-0.016 0h0.001zM52.51 264.207c-29.001 0-52.51 23.51-52.51 52.51v0 262.551c0 29.001 23.51 52.51 52.51 52.51s52.51-23.51 52.51-52.51v0-262.551c-0.009-28.997-23.513-52.502-52.509-52.51h-0.001z" />
<glyph unicode="&#xe91b;" glyph-name="trend" horiz-adv-x="1501" d="M1198.262 527.956l-154.554-236.572c37.285-32.776 60.69-80.572 60.69-133.833 0-2.996-0.074-5.974-0.22-8.933l0.016 0.416c-5.499-103.48-85.188-205.319-195.5-199.189-110.55 6.102-189.552 86.563-195.528 199.189 2.728 45.69 18.321 87.266 43.168 121.726l-0.469-0.683q-83.281 94.881-166.603 189.735c-24.384-26.436-59.196-42.937-97.863-42.937-2.247 0-4.481 0.056-6.701 0.166l0.312-0.012c-40.51 1.685-76.877 18.151-104.12 44.108l0.065-0.062q-14.785-17.436-29.556-34.9-54.020-63.74-107.899-127.509c11.472-19.394 18.729-42.515 19.947-67.223l0.014-0.347c-3.661-69.674-57.386-138.31-131.605-134.2-68.384 3.745-135.743 58.522-131.745 134.186 3.703 69.73 57.4 138.366 131.745 134.256 28.346-1.306 54.237-10.813 75.635-26.182l-0.42 0.287q70.67 83.659 141.508 167.249c-9.37 19.406-15.38 42.057-16.646 65.966l-0.019 0.44c4.278 81.064 66.77 160.852 153.137 156.097 79.535-4.363 157.766-68.061 153.123-156.097-1.496-24.62-7.691-47.455-17.697-68.1l0.471 1.077q86.030-98.080 172.256-196.187c28.69 24.104 66.030 38.748 106.791 38.748 3.069 0 6.119-0.083 9.147-0.247l-0.422 0.018c33.546-2.074 64.506-11.345 91.942-26.274l-1.157 0.576q75.243 115.151 150.458 230.316c-51.719 35.63-89.523 95.386-93.984 179.733 6.27 117.83 96.957 233.71 222.503 226.795 115.572-6.326 229.236-98.795 222.446-226.795-9.735-183.114-176.114-251.329-302.669-204.8zM126.247 300.712c-38.736 0-70.137-31.401-70.137-70.137s31.401-70.137 70.137-70.137c38.736 0 70.137 31.401 70.137 70.137v0c0 38.736-31.401 70.137-70.137 70.137v0zM483.945 665.425c-50.356 0-91.178-40.822-91.178-91.178s40.822-91.178 91.178-91.178c50.356 0 91.178 40.822 91.178 91.178v0c0 50.356-40.822 91.178-91.178 91.178v0zM911.781 272.658c-69.724 0-126.247-56.523-126.247-126.247s56.523-126.247 126.247-126.247c69.724 0 126.247 56.523 126.247 126.247v0c0 69.724-56.523 126.247-126.247 126.247v0zM1276.493 889.863c-85.218 0-154.301-69.083-154.301-154.301s69.083-154.301 154.301-154.301c85.218 0 154.301 69.083 154.301 154.301v0c0 85.218-69.083 154.301-154.301 154.301v0z" />
<glyph unicode="&#xe91c;" glyph-name="arrow-down" horiz-adv-x="1755" d="M1448.229 957.806l-570.514-443.392-543.89 422.912-333.824-319.342 877.714-681.984 877.714 682.423z" />
<glyph unicode="&#xe91d;" glyph-name="arrow-up" horiz-adv-x="1755" d="M1448.229-61.806l-570.514 443.392-543.89-422.912-333.824 319.342 877.714 681.984 877.714-682.423z" />
<glyph unicode="&#xe91e;" glyph-name="myclip-video" d="M512-64.070c-0.031 0-0.068 0-0.105 0-282.808 0-512.070 229.261-512.070 512.070s229.261 512.070 512.070 512.070c282.808 0 512.070-229.261 512.070-512.070 0-0.025 0-0.049 0-0.074v0.004c0-0.017 0-0.038 0-0.058 0-282.738-229.204-511.942-511.942-511.942-0.008 0-0.016 0-0.025 0h0.001zM512 874.595c-0.062 0-0.136 0-0.209 0-235.602 0-426.595-190.993-426.595-426.595s190.993-426.595 426.595-426.595c235.575 0 426.552 190.95 426.595 426.516v0.004c0 0.003 0 0.008 0 0.012 0 235.541-190.866 426.503-426.371 426.659h-0.015zM680.873 426.659l-212.608-154.473c-4.18-3.091-9.437-4.948-15.127-4.948-14.133 0-25.591 11.453-25.6 25.584v309.127c0.031 14.141 11.501 25.592 25.646 25.592 5.668 0 10.907-1.839 15.152-4.953l-0.072 0.050 212.608-154.612c6.462-4.678 10.617-12.198 10.617-20.689 0-8.488-4.153-16.006-10.537-20.633l-0.074-0.051z" />
<glyph unicode="&#xe91f;" glyph-name="mobitv_hd" horiz-adv-x="2048" d="M469.632 940.032h-250.624l-170.112-965.632h250.624l69.76 396.8h362.496l-69.76-396.8h250.624l170.112 965.632h-250.752l-65.536-372.48h-362.496zM1432.576-25.6c142.938 0.567 273.329 53.827 372.858 141.346l-0.634-0.546c104.668 83.943 178.24 202.873 203 338.83l0.52 3.442c6.329 26.541 9.957 57.014 9.957 88.334 0 97.295-35.018 186.412-93.138 255.434l0.492-0.6c-74.090 85.819-183.027 139.807-304.573 139.807-6.416 0-12.798-0.15-19.14-0.448l0.897 0.034h-355.712l-170.112-965.632h355.584zM1519.616 726.912c5.494 0.46 11.891 0.722 18.349 0.722 66.712 0 126.892-27.965 169.458-72.811l0.097-0.103c29.393-38.192 47.108-86.697 47.108-139.34 0-20.768-2.757-40.893-7.925-60.027l0.37 1.607c-11.467-80.218-51.481-149.455-109.235-198.403l-0.461-0.381c-55.677-44.534-127.121-71.466-204.857-71.466-3.716 0-7.418 0.062-11.105 0.184l0.537-0.014h-56.832l95.232 540.032h59.392z" />
<glyph unicode="&#xe920;" glyph-name="mobitv_list" d="M0 704h256v256h-256v-256zM384-64h256v256h-256v-256zM0-64h256v256h-256v-256zM0 320h256v256h-256v-256zM384 320h256v256h-256v-256zM768 960v-256h256v256h-256zM384 704h256v256h-256v-256zM768 320h256v256h-256v-256zM768-64h256v256h-256v-256z" />
<glyph unicode="&#xe921;" glyph-name="mobitv_live" d="M512 960c-282.77 0-512-229.23-512-512s229.23-512 512-512c282.77 0 512 229.23 512 512v0c-0.87 282.419-229.581 511.13-511.917 512h-0.083zM409.6 217.6v460.8l307.2-230.4z" />
<glyph unicode="&#xe922;" glyph-name="mobitv_money" horiz-adv-x="887" d="M516.233 279.723c-4.043 3.988-8.758 7.306-13.959 9.767l-0.309 0.131c-10.329 4.924-22.406 9.127-34.991 11.992l-1.19 0.228v-91.546c21.849 0.439 41.148 10.984 53.467 27.139l0.123 0.168c3.149 5.603 5.005 12.298 5.005 19.427 0 3.23-0.381 6.372-1.1 9.382l0.055-0.274c-1.144 5.312-3.641 9.92-7.113 13.599l0.013-0.014zM519.305 237.193v0 0zM371.78 426.018c-3.31-4.504-5.538-9.996-6.199-15.96l-0.014-0.151c-0.195-1.427-0.306-3.076-0.306-4.751 0-4.669 0.863-9.137 2.439-13.252l-0.085 0.254c2.634-5.175 6.605-9.344 11.465-12.145l0.14-0.075c4.931-3.159 10.603-6.010 16.571-8.256l0.632-0.209c4.983-1.911 10.65-3.755 16.725-5.393v82.671c-16.661-2.436-31.047-10.711-41.295-22.644l-0.075-0.089zM519.851 238.012l-0.41-0.683zM520.329 238.899v0zM499.849 736.7c81.374 65.399 135.782 212.651 102.4 219.136-68.878-5.19-132.789-17.826-193.694-37.204l5.961 1.637c-66.355-7.714-138.718 68.608-179.2 26.078-32.905-34.543 23.62-160.29 112.026-215.108-263.782-123.972-634.47-746.086 12.288-791.279 894.839-62.396 446.737 675.977 139.878 796.74zM576.717 245.999c-3.287-25.271-16.745-46.882-36.061-60.921l-0.257-0.178c-20.831-14.519-46.359-23.693-73.943-25.041l-0.331-0.013v-26.829c-0.061-7.552-3.481-14.293-8.837-18.811l-0.037-0.031c-4.697-3.928-10.801-6.313-17.462-6.313-3.956 0-7.716 0.841-11.11 2.355l0.174-0.069c-8.984 3.916-15.187 12.647-15.36 22.847v29.377c-4.506 0.819-9.011 1.775-13.653 2.935-25.6 6.428-47.491 19.724-64.301 37.807l-0.074 0.081c-8.070 8.914-14.754 19.276-19.593 30.615l-0.273 0.72q-1.843 4.506-3.277 9.079c-0.881 2.442-1.597 5.322-2.020 8.295l-0.028 0.238c-0.084 0.757-0.132 1.634-0.132 2.522 0 4.284 1.111 8.308 3.062 11.8l-0.063-0.123c4.697 8.262 13.439 13.744 23.462 13.744 0.777 0 1.546-0.033 2.306-0.097l-0.099 0.007c10.429-0.839 19.082-7.636 22.604-16.954l0.060-0.181c1.024-2.867 1.707-5.871 2.799-8.738 1.251-3.205 2.604-5.925 4.165-8.504l-0.137 0.244c3.291-5.398 7.111-10.044 11.493-14.091l0.044-0.040c9.247-8.151 20.525-14.221 32.97-17.359l0.549-0.117v99.328c-26.157 5.313-49.318 15.238-69.702 28.97l0.685-0.435c-9.755 7.012-17.665 15.969-23.28 26.349l-0.203 0.411c-5.127 10.307-8.127 22.449-8.127 35.292 0 0.265 0.001 0.529 0.004 0.793v-0.040c-0.001 0.151-0.002 0.33-0.002 0.508 0 12.995 2.998 25.29 8.341 36.23l-0.216-0.489c5.447 11.118 12.697 20.528 21.473 28.245l0.1 0.086c19.39 16.13 43.698 26.982 70.374 30.047l0.623 0.058v27.989c0.061 7.552 3.481 14.293 8.837 18.811l0.037 0.031c4.68 3.877 10.746 6.23 17.361 6.23 3.943 0 7.69-0.836 11.075-2.339l-0.174 0.069c8.984-3.916 15.187-12.647 15.36-22.847v-27.602q5.12-0.614 10.172-1.502c26.667-3.971 50.147-15.37 68.881-32l-0.137 0.119c8.576-8.092 15.635-17.682 20.776-28.368l0.25-0.577c1.173-2.416 2.42-5.463 3.498-8.588l0.188-0.628c0.971-2.515 1.822-5.516 2.406-8.611l0.052-0.332c0.181-1.111 0.284-2.391 0.284-3.695 0-3.874-0.912-7.535-2.532-10.781l0.063 0.14c-4.588-8.593-13.495-14.341-23.745-14.341-10.995 0-20.445 6.614-24.589 16.080l-0.067 0.173c-1.092 2.458-1.638 5.393-2.594 8.124-1.275 3.034-2.716 5.638-4.396 8.064l0.095-0.145c-3.408 4.918-7.53 9.062-12.268 12.389l-0.157 0.104c-10.269 6.867-22.482 11.693-35.641 13.597l-0.472 0.056v-95.573c17.731-3.785 32.791-8.183 47.39-13.536l-2.402 0.771c22.763-7.46 41.552-21.832 54.382-40.601l0.232-0.359c3.686-6.144 1.911-3.209 0 0 7.209-12.36 11.464-27.208 11.464-43.050 0-3.812-0.246-7.566-0.724-11.247l0.046 0.435zM519.373 236.715l-0.546-0.341z" />
<glyph unicode="&#xe923;" glyph-name="addcircle" d="M512-64c-282.77 0-512 229.23-512 512s229.23 512 512 512c282.77 0 512-229.23 512-512v0c0-282.77-229.23-512-512-512v0zM512 896c-247.424 0-448-200.576-448-448s200.576-448 448-448c247.424 0 448 200.576 448 448v0c0 247.424-200.576 448-448 448v0zM704 416h-160v-160c0-17.673-14.327-32-32-32s-32 14.327-32 32v0 160h-160c-17.673 0-32 14.327-32 32s14.327 32 32 32v0h160v160c0 17.673 14.327 32 32 32s32-14.327 32-32v0-160h160c17.673 0 32-14.327 32-32s-14.327-32-32-32v0z" />
<glyph unicode="&#xe924;" glyph-name="addplaylist" horiz-adv-x="1308" d="M1079.353 166.172v-222.777h-101.945v222.777h-225.109v100.921h225.052v222.777h101.945v-222.777h225.166v-100.921h-225.109zM51.541 590.222h856.519v-101.092h-856.519v101.092zM51.541 913.18h856.519v-101.092h-856.519v100.864zM649.671 166.172h-598.13v100.921h598.13v-100.921z" />
<glyph unicode="&#xe925;" glyph-name="checker" d="M325.803 224.512l-244.309 240.555-81.493-80.128 325.803-320.939 698.197 687.787-81.493 80.213z" />
<glyph unicode="&#xe926;" glyph-name="delete" d="M1024 857.6l-102.4 102.4-409.6-409.6-409.6 409.6-102.4-102.4 409.6-409.6-409.6-409.6 102.4-102.4 409.6 409.6 409.6-409.6 102.4 102.4-409.6 409.6z" />
<glyph unicode="&#xe927;" glyph-name="dislike" d="M1024.341 489.87c-10.947-73.948-73.981-130.050-150.118-130.050-0.284 0-0.568 0.001-0.852 0.002h-102.356l-179.996-399.246c-6.785-14.6-21.314-24.547-38.169-24.576h-0.004c-0.323-0.002-0.705-0.003-1.087-0.003-101.195 0-183.332 81.6-184.199 182.591l-0.001 0.082v147.285h-228.124c-0.381-0.004-0.832-0.006-1.283-0.006-7.277 0-14.423 0.561-21.397 1.641l0.777-0.099c-37.079 5.519-68.743 25.215-89.859 53.295l-0.253 0.351c-16.705 22.018-26.76 49.88-26.76 80.091 0 7.172 0.567 14.211 1.658 21.076l-0.099-0.758 66.048 423.879c5.319 33.495 22.293 62.3 46.558 82.719l0.205 0.168c23.903 20.104 55.024 32.319 88.997 32.319 0.472 0 0.943-0.002 1.414-0.007l-0.072 0.001h665.6c0.921 0.020 2.007 0.032 3.096 0.032 76.138 0 139.178-56.083 150.061-129.192l0.102-0.831c0.252-1.708 0.397-3.681 0.398-5.688v-329.501c0.004-0.206 0.006-0.45 0.006-0.694 0-1.72-0.105-3.416-0.31-5.081l0.020 0.199zM205.141 877.852h-1.081c-0.040 0-0.087 0-0.134 0-26.512 0-48.522-19.272-52.786-44.571l-0.044-0.314-65.764-423.879c-0.388-2.383-0.61-5.13-0.61-7.929 0-11.776 3.928-22.635 10.545-31.338l-0.093 0.128c8.328-11.066 20.661-18.731 34.808-20.842l0.293-0.036c2.315-0.368 4.984-0.578 7.703-0.578 0.332 0 0.663 0.003 0.994 0.009l-0.050-0.001h270.677c0.085 0.001 0.185 0.001 0.286 0.001 22.91 0 41.505-18.476 41.698-41.341v-188.377c0.245-46.38 31.916-85.296 74.793-96.555l0.699-0.156 174.876 387.925v467.854h-496.811zM940.772 821.931c-6.040 32.031-33.8 55.936-67.144 55.936-0.495 0-0.988-0.005-1.481-0.016l0.073 0.001h-86.3v-435.2h86.3c0.419-0.009 0.912-0.015 1.407-0.015 33.343 0 61.103 23.905 67.077 55.511l0.067 0.425v323.356z" />
<glyph unicode="&#xe928;" glyph-name="download" horiz-adv-x="967" d="M915.911 255.147c-22.458-0.256-40.564-18.521-40.564-41.014 0-0.161 0.001-0.322 0.003-0.482v0.024-141.596c0.002-0.153 0.003-0.334 0.003-0.516 0-28.718-23.104-52.039-51.738-52.391h-646.405c-28.667 0.352-51.771 23.673-51.771 52.391 0 0.181 0.001 0.362 0.003 0.543v-0.028 141.596c0.002 0.136 0.003 0.297 0.003 0.458 0 22.494-18.107 40.759-40.54 41.014h-0.024c-22.458-0.256-40.564-18.521-40.564-41.014 0-0.161 0.001-0.322 0.003-0.482v0.024-141.596c-0.006-0.46-0.009-1.002-0.009-1.546 0-73.729 59.305-133.606 132.814-134.531l0.087-0.001h646.428c73.595 0.928 132.899 60.804 132.899 134.532 0 0.464-0.002 0.927-0.007 1.389l0.001-0.071v141.824c0.002 0.136 0.003 0.296 0.003 0.457 0 22.514-18.139 40.791-40.6 41.015h-0.021zM713.785 417.223l-184.718-188.757c-3.672-3.748-8.056-6.783-12.935-8.887l-0.263-0.101c-4.381-1.88-9.474-3.003-14.822-3.072h-1.164c-5.456 0.057-10.629 1.202-15.334 3.228l0.259-0.099c-5.141 2.187-9.525 5.204-13.193 8.927l-0.005 0.005-184.548 188.757c-7.345 7.578-11.873 17.923-11.873 29.326s4.528 21.749 11.883 29.337l-0.011-0.011c7.256 7.536 17.432 12.216 28.7 12.216s21.444-4.681 28.688-12.204l0.012-0.013 115.428-117.988v560.583c0 22.402 18.16 40.562 40.562 40.562s40.562-18.16 40.562-40.562v-560.583l115.371 117.988c7.256 7.536 17.432 12.216 28.7 12.216s21.444-4.681 28.688-12.204l0.012-0.013c7.358-7.572 11.895-17.919 11.895-29.326s-4.537-21.755-11.905-29.336l0.010 0.010z" />
<glyph unicode="&#xe929;" glyph-name="fire" horiz-adv-x="768" d="M460.8 960c16.709-68.091 27.742-147.165 30.66-228.308l0.060-2.092c0.2-3.082 0.315-6.682 0.315-10.308 0-91.624-72.931-166.215-163.909-168.886l-0.246-0.006c-96.502 1.663-174.093 80.283-174.093 177.025 0 0.765 0.005 1.528 0.015 2.291l-0.001-0.116v15.36c-95.501-114.339-153.515-262.866-153.6-424.941v-0.019c1.583-211.438 172.562-382.417 383.849-383.999l0.151-0.001c211.438 1.583 382.417 172.562 383.999 383.849l0.001 0.151c0.018 2.018 0.029 4.404 0.029 6.793 0 256.075-119.398 484.264-305.561 631.931l-1.667 1.277zM384 89.6c-1.365-0.045-2.969-0.070-4.579-0.070-82.258 0-148.941 66.683-148.941 148.941 0 76.657 57.911 139.787 132.37 148.029l0.67 0.060c89.364 11.865 166.426 56.972 219.675 122.266l0.485 0.614c19.48-57.501 30.723-123.73 30.723-192.584 0-0.695-0.001-1.389-0.003-2.083v0.108c-1.756-124.797-103.333-225.289-228.382-225.289-0.71 0-1.418 0.003-2.127 0.010l0.109-0.001z" />
<glyph unicode="&#xe92a;" glyph-name="history" d="M537.6 677.035h-76.8v-259.584l240.64-142.507 40.96 66.162-204.8 122.14v213.788zM537.6 931.556c-0.738 0.004-1.611 0.006-2.485 0.006-178.257 0-333.754-97.452-416.118-241.987l-1.237-2.357-117.76 117.077v-330.866h332.8l-143.36 142.564c65.828 127.824 196.872 213.732 347.981 213.732 0.063 0 0.126 0 0.189 0h-0.010c210.909-0.92 381.788-171.001 383.998-381.514l0.002-0.21c-1.95-211.25-173.654-381.749-385.179-381.749-165.85 0-307.22 104.816-361.478 251.819l-0.862 2.669h-107.52c59.394-207.17 247.137-356.224 469.693-356.224 267.88 0 485.324 215.947 487.745 483.255l0.002 0.229c-2.536 267.032-219.137 482.635-486.311 483.555h-0.089z" />
<glyph unicode="&#xe92b;" glyph-name="home2" d="M409.6 16.842v304.29h204.8v-304.29h256v405.773h153.6l-512 456.542-512-456.542h153.6v-405.773h256z" />
<glyph unicode="&#xe92c;" glyph-name="like" horiz-adv-x="1081" d="M1069.796 475.25l-65.593-423.14c-5.3-33.443-22.233-62.207-46.445-82.606l-0.203-0.167c-23.758-20.032-54.713-32.206-88.51-32.206-0.483 0-0.966 0.002-1.448 0.007l0.074-0.001h-662.244c-0.841-0.017-1.833-0.026-2.826-0.026-75.912 0-138.749 55.981-149.48 128.912l-0.099 0.821c-0.254 1.688-0.398 3.636-0.398 5.618 0 0.025 0 0.050 0 0.075v-0.004 328.988c0 0.021 0 0.046 0 0.071 0 1.982 0.145 3.93 0.424 5.834l-0.026-0.216c10.816 73.736 73.634 129.708 149.526 129.708 0.192 0 0.385 0 0.577-0.001h101.687l179.029 398.507c6.713 14.612 21.222 24.576 38.058 24.576 0.040 0 0.080 0 0.12 0h-0.006c0.238 0.001 0.519 0.002 0.8 0.002 100.938 0 182.843-81.488 183.519-182.266v-146.838h226.93c0.372 0.004 0.811 0.006 1.252 0.006 7.248 0 14.365-0.561 21.31-1.641l-0.773 0.099c36.894-5.535 68.383-25.187 89.346-53.178l0.254-0.355c16.686-22.023 26.729-49.883 26.729-80.088 0-7.233-0.576-14.332-1.685-21.254l0.101 0.762zM205.084 454.258h-0.74c-0.453 0.011-0.987 0.017-1.523 0.017-33.215 0-60.852-23.88-66.68-55.408l-0.064-0.417v-322.844c5.892-31.945 33.529-55.825 66.744-55.825 0.536 0 1.070 0.006 1.602 0.019l-0.079-0.001h85.788v434.46h-85.333zM977.465 526.848c-8.254 11.046-20.509 18.709-34.58 20.842l-0.293 0.037c-2.294 0.368-4.939 0.578-7.632 0.578-0.337 0-0.673-0.003-1.008-0.010l0.050 0.001h-269.426c-0.068 0-0.148-0.001-0.228-0.001-22.856 0-41.399 18.464-41.528 41.29v188.030c-0.091 46.314-31.63 85.236-74.395 96.554l-0.698 0.157-174.023-387.527v-467.001h495.275c26.419 0.022 48.343 19.24 52.579 44.459l0.043 0.313 65.65 423.253c0.383 2.369 0.602 5.1 0.602 7.882 0 11.745-3.902 22.578-10.481 31.274l0.094-0.13z" />
<glyph unicode="&#xe92d;" glyph-name="notify" d="M194.15 253.901c18.675 28.078 29.798 62.578 29.798 99.676 0 0.058 0 0.116 0 0.173v-0.009 235.52c-0.016 1.142-0.026 2.49-0.026 3.841 0 159.115 128.988 288.102 288.102 288.102s288.102-128.988 288.102-288.102c0-1.35-0.009-2.699-0.028-4.044l0.002 0.204v-235.52c0-0.049 0-0.107 0-0.164 0-37.098 11.123-71.597 30.217-100.346l-0.419 0.67h-635.75zM982.63 253.901c-55.117 0.058-99.782 44.723-99.84 99.835v235.525c0 204.796-166.020 370.816-370.816 370.816s-370.816-166.020-370.816-370.816v0-235.52c-0.058-55.117-44.723-99.782-99.835-99.84h-0.005c-22.848 0-41.37-18.522-41.37-41.37s18.522-41.37 41.37-41.37h941.312c22.848 0 41.37 18.522 41.37 41.37s-18.522 41.37-41.37 41.37v0zM614.4 60.058c-5.914 3.455-13.020 5.495-20.602 5.495-15.155 0-28.407-8.149-35.613-20.305l-0.105-0.191c-9.294-15.849-26.246-26.323-45.645-26.323s-36.351 10.474-45.51 26.075l-0.135 0.248c-7.302 12.439-20.611 20.658-35.84 20.658-22.875 0-41.419-18.544-41.419-41.419 0-7.646 2.072-14.808 5.685-20.956l-0.106 0.194c23.908-40.628 67.418-67.465 117.197-67.465s93.289 26.837 116.851 66.832l0.345 0.634c3.494 5.94 5.558 13.084 5.558 20.711 0 15.222-8.222 28.525-20.467 35.708l-0.195 0.106z" />
<glyph unicode="&#xe92e;" glyph-name="playlist" d="M0 174.933h631.467v112.071h-631.467v-112.071zM0 846.222v-111.844h1024v111.844h-1024zM0 454.77h1024v111.844h-1024v-111.844zM733.867 387.868v-315.79l290.133 162.304z" />
<glyph unicode="&#xe92f;" glyph-name="plus" d="M1024 345.6h-409.6v-409.6h-204.8v409.6h-409.6v204.8h409.6v409.6h204.8v-409.6h409.6v-204.8z" />
<glyph unicode="&#xe930;" glyph-name="register" d="M1001.244 720.725l-470.756 235.463c-5.388 2.747-11.75 4.356-18.489 4.356s-13.101-1.609-18.725-4.465l0.236 0.109-470.756-235.463c-13.611-6.974-22.764-20.907-22.764-36.978s9.153-30.003 22.531-36.869l0.233-0.109 470.756-235.52c5.387-2.751 11.75-4.363 18.489-4.363s13.102 1.612 18.724 4.471l-0.235-0.108 470.756 235.463c13.642 6.964 22.821 20.913 22.821 37.006s-9.179 30.042-22.587 36.898l-0.234 0.109zM512 494.535l-378.254 189.212 378.254 189.156 378.254-189.156zM1019.79 231.31c-6.95 13.684-20.922 22.897-37.044 22.897-6.735 0-13.094-1.608-18.715-4.46l0.236 0.109-452.267-226.19-452.267 226.19c-4.868 2.174-10.549 3.44-16.525 3.44-22.873 0-41.415-18.542-41.415-41.415 0-15.329 8.328-28.713 20.706-35.874l0.199-0.106 470.756-235.463c5.394-2.76 11.767-4.377 18.517-4.377s13.123 1.617 18.752 4.485l-0.235-0.108 470.756 235.349c13.684 6.95 22.897 20.922 22.897 37.044 0 6.735-1.608 13.094-4.46 18.715l0.109-0.236zM1019.79 466.773c-6.94 13.668-20.893 22.871-36.996 22.871-6.754 0-13.131-1.619-18.762-4.491l0.234 0.109-452.267-226.19-452.267 226.19c-5.387 2.75-11.75 4.362-18.489 4.362-22.847 0-41.368-18.521-41.368-41.368 0-16.108 9.206-30.065 22.644-36.898l0.235-0.108 470.756-235.463c5.394-2.76 11.767-4.377 18.517-4.377s13.123 1.617 18.752 4.485l-0.235-0.108 470.699 235.463c13.684 6.95 22.897 20.922 22.897 37.044 0 6.735-1.608 13.094-4.46 18.715l0.109-0.236z" />
<glyph unicode="&#xe931;" glyph-name="search2" d="M388.324 260.949c171.578 0 310.67 139.092 310.67 310.67s-139.092 310.67-310.67 310.67c-171.558 0-310.638-139.059-310.67-310.61v-0.003c0-0.017 0-0.037 0-0.057 0-171.578 139.092-310.67 310.67-310.67v0zM701.212 341.276l322.788-322.901-82.375-82.375-322.958 322.958c-63.574-47.259-143.617-75.656-230.292-75.656-214.465 0-388.324 173.858-388.324 388.324s173.858 388.324 388.324 388.324c214.465 0 388.324-173.858 388.324-388.324 0-86.675-28.397-166.718-76.395-231.332l0.738 1.040z" />
<glyph unicode="&#xe932;" glyph-name="share" d="M1024 498.176l-530.483 437.862v-273.51c-139.523-6.394-264.31-64.678-356.504-155.851l0.050 0.049c-188.262-200.96-118.118-513.997-115.046-527.206l3.942-17.050 79.309 6.195v18.534c0 295.936 189.44 358.093 348.16 358.093 15.36 0 28.774-0.666 40.038-1.485v-283.853zM107.52 276.941c15.904 70.312 48.711 131.361 93.967 180.831l-0.271-0.3c74.752 79.667 187.904 124.006 336.896 131.84l39.629 2.048v171.981l321.126-265.165-321.126-265.216v175.821l-33.229 6.093c-25.953 4.411-55.85 6.932-86.336 6.932-1.652 0-3.301-0.007-4.949-0.022l0.252 0.002c-76.595 0-243.558-16.077-345.958-144.845z" />
<glyph unicode="&#xe933;" glyph-name="sort" d="M0 106.667h341.333v113.749h-341.333v-113.749zM0 789.333v-113.749h1024v113.749h-1024zM0 391.083h682.667v113.835h-682.667v-113.835z" />
<glyph unicode="&#xe934;" glyph-name="user" d="M256 618.65c0 141.385 114.615 256 256 256s256-114.615 256-256c0-141.385-114.615-256-256-256v0c-141.221 0.407-255.594 114.779-256 255.961v0.039zM691.2 328.55c97.839 60.091 162.106 166.514 162.106 287.948 0 0.756-0.002 1.512-0.007 2.267l0.001-0.116c0.016 1.243 0.026 2.71 0.026 4.18 0 188.494-152.805 341.299-341.299 341.299s-341.299-152.805-341.299-341.299c0-1.47 0.009-2.937 0.028-4.402l-0.002 0.222c-0.005-0.648-0.007-1.415-0.007-2.182 0-121.413 64.245-227.82 160.595-287.082l1.46-0.836c-170.236-64.939-296.264-210.748-332.232-389.173l-0.568-3.377h85.35c45.381 196.814 219.113 341.333 426.598 341.333s381.217-144.519 426.025-338.386l0.573-2.947h85.453c-33.915 183.003-161.003 329.923-329.231 391.41l-3.569 1.141z" />
<glyph unicode="&#xe935;" glyph-name="warning" d="M863.403 851.172h-236.487c-0.363-0.010-0.79-0.016-1.218-0.016-18.457 0-34.386 10.825-41.785 26.473l-0.12 0.281c-22.472 48.827-70.976 82.115-127.255 82.115-0.922 0-1.842-0.009-2.76-0.027l0.138 0.002h-293.262c-0.411 0.013-0.893 0.021-1.378 0.021-24.762 0-44.906-19.776-45.498-44.396l-0.001-0.055v-935.14c0.593-24.675 20.736-44.451 45.499-44.451 0.484 0 0.967 0.008 1.448 0.023l-0.070-0.002c0.411-0.013 0.893-0.021 1.378-0.021 24.762 0 44.906 19.776 45.498 44.396l0.001 0.055v366.251h246.386c0.363 0.010 0.79 0.016 1.218 0.016 18.457 0 34.386-10.825 41.785-26.473l0.12-0.281c22.472-48.827 70.976-82.115 127.255-82.115 0.922 0 1.842 0.009 2.76 0.027l-0.138-0.002h236.43c0.411-0.013 0.893-0.021 1.378-0.021 24.762 0 44.906 19.776 45.498 44.396l0.001 0.055v524.459c-0.594 24.674-20.737 44.449-45.499 44.449-0.464 0-0.927-0.007-1.388-0.021l0.068 0.002zM816.526 326.713h-189.611c-0.363-0.010-0.79-0.016-1.218-0.016-18.457 0-34.386 10.825-41.785 26.473l-0.12 0.281c-22.472 48.827-70.976 82.115-127.255 82.115-0.922 0-1.842-0.009-2.76-0.027l0.138 0.002h-246.443v435.541h246.443c0.355 0.010 0.773 0.015 1.192 0.015 18.479 0 34.424-10.851 41.811-26.528l0.119-0.282c22.496-48.766 70.969-82.002 127.204-82.002 0.94 0 1.878 0.009 2.813 0.028l-0.14-0.002h189.554v-435.541z" />
<glyph unicode="&#xe936;" glyph-name="watch" d="M512 38.4c-226.216 0-409.6 183.384-409.6 409.6s183.384 409.6 409.6 409.6c226.216 0 409.6-183.384 409.6-409.6v0c-0.677-225.943-183.657-408.923-409.535-409.6h-0.065zM512 960c-282.77 0-512-229.23-512-512s229.23-512 512-512c282.77 0 512 229.23 512 512v0c-0.838 282.432-229.568 511.162-511.92 512h-0.080zM537.6 704h-76.8v-307.2l266.24-163.84 40.96 66.56-230.4 138.24v266.24z" />
<glyph unicode="&#xe937;" glyph-name="upload" horiz-adv-x="960" d="M917.44 256.896c-0.153 0.002-0.334 0.003-0.515 0.003-23.114 0-41.886-18.594-42.173-41.64v-142.235c-0.431-29.431-24.39-53.123-53.883-53.123-0.204 0-0.409 0.001-0.612 0.003h-680.353c-0.173-0.002-0.377-0.003-0.581-0.003-29.493 0-53.451 23.692-53.882 53.083v142.249c-0.287 23.073-19.059 41.667-42.173 41.667-0.181 0-0.362-0.001-0.542-0.003h0.027c-0.172 0.003-0.375 0.004-0.579 0.004-23.115 0-41.886-18.594-42.173-41.641v-142.235c1.078-75.592 62.608-136.457 138.355-136.457 0.545 0 1.089 0.003 1.632 0.009l-0.083-0.001h680.384c0.403-0.004 0.88-0.007 1.357-0.007 75.746 0 137.276 60.864 138.354 136.353l0.001 0.101v142.208c-0.288 23.073-19.059 41.666-42.173 41.666-0.136 0-0.272-0.001-0.408-0.002h0.021zM702.272 699.392c-7.809-7.558-18.464-12.217-30.208-12.217s-22.399 4.658-30.22 12.228l0.012-0.011-123.456 120.32v-564.928c-0.914-22.889-19.69-41.098-42.72-41.098s-41.806 18.209-42.717 41.015l-0.003 0.083v561.216l-119.36-116.608c-7.809-7.558-18.464-12.217-30.208-12.217s-22.399 4.658-30.22 12.228l0.012-0.011c-7.721 7.459-12.515 17.906-12.515 29.472s4.794 22.013 12.503 29.461l0.012 0.011 188.416 183.808c7.687 10.776 20.106 17.747 34.159 17.856h0.017c0.32 0 0.64 0 0.96 0 0.398 0.013 0.866 0.021 1.336 0.021 11.595 0 22.117-4.595 29.844-12.064l-0.012 0.012 194.368-189.568c7.741-7.462 12.548-17.922 12.548-29.504s-4.807-22.042-12.536-29.492l-0.013-0.012z" />
<glyph unicode="&#xe938;" glyph-name="menu" horiz-adv-x="1755" d="M0 960h1755.429v-146.286h-1755.429v146.286zM0 521.143h1755.429v-146.286h-1755.429v146.286zM0 82.286h1755.429v-146.286h-1755.429v146.286z" />
<glyph unicode="&#xe939;" glyph-name="follow" horiz-adv-x="1081" d="M939.122 824.775v135.168h-69.86v-135.168h-139.776v-67.527h139.776v-135.168h69.86v135.168h139.776v67.527zM812.654 207.941c36.292 65.021 55.715 137.59 56.599 211.472-0.142 117.443-89.408 216.991-209.627 233.768v2.703c0 130.599-109.495 236.47-244.565 236.47s-244.565-105.871-244.565-236.47c0.889-73.625 20.188-145.946 56.25-210.796-96.492-16.897-179.869-75.155-226.746-158.435l61.141-33.781c42.288 75.1 121.387 124.048 209.627 129.721 31.215-34.793 74.407-57.473 121.584-63.847 9.274-39.007 23.963-76.621 43.672-111.817-133.517-23.765-238.649-123.68-265.527-252.347l69.876-16.215c22.88 114.232 121.802 199.65 241.77 208.769 35.643-40.542 87.528-64.396 142.546-65.536 55.387 0.853 107.711 24.732 143.594 65.536 157.57-14.864 218.711-119.586 241.77-209.107l68.828 16.553c-26.594 129.258-132.137 229.701-266.226 253.361zM380.124 411.981c0-9.459 0-19.593 2.096-29.728-88.393 27.363-147.088 157.084-147.088 275.319 0 96.923 81.261 175.495 181.502 175.495s181.502-78.571 181.502-175.495c0 0 0-2.027 0-2.703-124.938-17.435-217.746-120.834-218.012-242.889zM624.688 140.716v1.013c-106.91 0-181.327 147.963-181.327 280.724 0.039 96.83 81.257 175.294 181.399 175.256 100.088-0.038 181.214-78.481 181.255-175.256 0-133.775-74.418-281.737-181.327-281.737z" />
<glyph unicode="&#xe93a;" glyph-name="file-rounded-outlined-symbol" d="M703.968 255.949h-383.937c-17.661 0-31.994-14.335-31.994-31.996s14.333-31.994 31.994-31.994h383.937c17.661 0 31.996 14.333 31.996 31.994s-14.335 31.996-31.996 31.996zM671.974 959.836v-0.928c-4.127 0-21.149 1.6-63.99 0.928h-383.937c-70.677 0-127.98-57.302-127.98-127.98v-767.876c0-70.676 57.302-127.978 127.98-127.978h575.907c70.677 0 127.98 57.302 127.98 127.978v639.898l-255.959 255.958zM863.943 63.98c0-35.322-28.634-63.99-63.99-63.99h-575.907c-35.354 0-63.99 28.668-63.99 63.99v767.876c0 35.354 28.635 63.99 63.99 63.99h383.042c-0.576-76.628 0.896-127.98 0.896-127.98 0-70.677 57.302-127.98 127.98-127.98 0 0 53.462 0 127.978 0v-575.907zM735.964 703.876c-35.356 0-63.99 28.667-63.99 63.99 0 0 0 51.8 0 127.98l191.968-191.968h-127.978zM703.968 447.918h-383.937c-17.661 0-31.994-14.335-31.994-31.996s14.333-31.994 31.994-31.994h383.937c17.661 0 31.996 14.333 31.996 31.994s-14.335 31.996-31.996 31.996z" />
<glyph unicode="&#xe93b;" glyph-name="ringoff" horiz-adv-x="939" d="M865.536 661.333c-26.14 108.85-114.152 191.559-223.939 209.534l-1.597 0.216v64.597c147.093-19.196 263.655-129.809 291.573-272.189l0.352-2.157h-66.389zM778.368 480.256v-196.267c0.049-45.931 37.27-83.152 83.195-83.2h0.005c19.040 0 34.475-15.435 34.475-34.475s-15.435-34.475-34.475-34.475h-784.427c-19.040 0-34.475 15.435-34.475 34.475s15.435 34.475 34.475 34.475v0c45.931 0.049 83.152 37.27 83.2 83.195v196.272c0 170.652 138.34 308.992 308.992 308.992s308.992-138.34 308.992-308.992v0zM469.333 720.384c-132.519-0.17-239.897-107.563-240.043-240.071v-196.281c0-0.041 0-0.089 0-0.137 0-30.915-9.27-59.665-25.181-83.621l0.349 0.558h529.749c-15.563 23.399-24.832 52.148-24.832 83.063 0 0.048 0 0.096 0 0.145v-0.008 196.267c-0.146 132.522-107.524 239.915-240.026 240.085h-0.016zM77.312 661.333h-68.267c30.786 142.374 144.853 251.24 287.628 273.915l1.993 0.261v-68.907c-107.786-20.675-192.737-100.255-220.893-203.286l-0.462-1.983zM384 39.381c4.928 2.879 10.85 4.579 17.169 4.579 12.629 0 23.673-6.791 29.677-16.921l0.088-0.16c7.745-13.208 21.872-21.936 38.037-21.936s30.293 8.728 37.925 21.729l0.112 0.207c6.085 10.366 17.176 17.215 29.867 17.215 19.063 0 34.516-15.453 34.516-34.516 0-6.372-1.727-12.34-4.737-17.463l0.088 0.162c-19.908-33.88-56.172-56.263-97.664-56.263s-77.756 22.384-97.376 55.734l-0.288 0.529c-2.912 4.95-4.631 10.904-4.631 17.259 0 12.685 6.851 23.771 17.056 29.757l0.162 0.088z" />
<glyph unicode="&#xe93c;" glyph-name="hotline" d="M819.785 461.897h-31.013c-0.119-0.015-0.256-0.023-0.395-0.023-1.891 0-3.423 1.533-3.423 3.423 0 0.111 0.005 0.221 0.016 0.329l-0.001-0.014v57.051h-115.536c-0.11-0.013-0.238-0.020-0.368-0.020-1.891 0-3.423 1.533-3.423 3.423 0 0.12 0.006 0.239 0.018 0.356l-0.001-0.015v28.496c-0.016 0.161-0.025 0.348-0.025 0.537 0 1.649 0.682 3.138 1.779 4.201l0.002 0.001c8.602 9.83 16.179 19.017 24.459 30.193l63.781 80.808c5.69 7.44 11.492 15.936 16.846 24.734l0.738 1.305c1.032 1.428 2.692 2.347 4.567 2.347 0.092 0 0.183-0.002 0.273-0.007h41.678c0.119 0.015 0.256 0.023 0.395 0.023 1.891 0 3.423-1.533 3.423-3.423 0-0.111-0.005-0.221-0.016-0.329l0.001 0.014v-139.059h21.358c0.11 0.013 0.238 0.020 0.368 0.020 1.891 0 3.423-1.533 3.423-3.423 0-0.12-0.006-0.239-0.018-0.356l0.001 0.015v-26.097c0.011-0.102 0.017-0.221 0.017-0.342 0-1.891-1.533-3.423-3.423-3.423-0.13 0-0.258 0.007-0.384 0.021l0.015-0.001h-21.328v-57.11c0.006-0.077 0.010-0.166 0.010-0.256 0-1.891-1.533-3.423-3.423-3.423-0.137 0-0.273 0.008-0.406 0.024l0.016-0.002zM781.751 649.611l-55.764-69.954c-4.962-6.785-10.155-12.767-15.801-18.289l-0.027-0.026c-2.428-2.721-1.053-5.091 1.726-5.091h73.143v58.748c0.016 11.741 0.76 23.292 2.188 34.63l-0.14-1.364c0.614 4.096-2.458 5.12-5.208 1.375zM632.422 491.886v-26.331c0.009-0.095 0.015-0.204 0.015-0.315 0-1.891-1.533-3.423-3.423-3.423-0.139 0-0.276 0.008-0.411 0.024l0.016-0.002h-147.222c-0.11-0.012-0.237-0.020-0.365-0.020-1.891 0-3.423 1.533-3.423 3.423 0 0.11 0.005 0.219 0.015 0.326l-0.001-0.014v16.384c-0.205 2.397-0.322 5.187-0.322 8.004 0 34.718 17.786 65.282 44.743 83.077l0.372 0.231 54.506 35.664c11.016 5.296 18.748 15.871 19.942 28.355l0.011 0.142c-1.081 17.787-15.77 31.802-33.733 31.802-2.214 0-4.379-0.213-6.474-0.62l0.213 0.034c-15.542-0.026-30.467-2.627-44.385-7.398l0.967 0.288-20.012-6.466c-0.343-0.127-0.74-0.2-1.154-0.2-1.598 0-2.94 1.095-3.317 2.576l-0.005 0.024-8.602 25.454c-0.248 0.421-0.395 0.927-0.395 1.467 0 1.559 1.219 2.833 2.757 2.921h0.008l19.368 6.437c16.339 5.356 35.156 8.55 54.686 8.776l0.113 0.001c49.006 0 78.994-24.079 78.994-65.156-1.913-25.647-17.59-47.224-39.6-57.517l-0.423-0.178-54.799-36.308c-14.874-10.066-24.522-26.877-24.522-45.941 0-0.676 0.012-1.35 0.036-2.021l-0.003 0.097h112.026c0.116 0.014 0.25 0.022 0.386 0.022 1.891 0 3.423-1.533 3.423-3.423 0-0.069-0.002-0.138-0.006-0.207v0.009zM934.941 270.526c-22.43-28.392-47.423-53.181-75.091-74.693l-0.978-0.732c29.010-21.555 48.951-53.907 53.875-91.002l0.075-0.69c2.107-50.79-39-89.205-75.249-123.173-5.851-5.588-11.703-11.030-17.262-16.384-20.887-17.536-48.066-28.188-77.732-28.188-3.173 0-6.317 0.122-9.428 0.361l0.413-0.026c-48.737 1.652-94.645 11.827-136.915 29.074l2.654-0.958c-132.276 55.072-244.992 132.375-338.726 228.304l-0.189 0.194c-97.347 92.058-175.76 203.007-229.534 327.114l-2.476 6.417c-38.034 98.977-38.034 180.253-0.293 217.41 5.442 5.383 11.001 11.118 16.706 16.998 34.523 35.664 74.138 76.069 125.074 74.021 35.606-1.463 70.217-23.201 105.326-66.443 104.272-127.737 57.285-173.261 2.926-226.041l-9.596-9.362c-8.777-8.777-25.746-49.357 130.779-203.454 38.769-39.857 81.119-75.826 126.662-107.528l2.83-1.865c21.943-14.043 61.089-35.109 77.18-19.397l9.684 9.596c52.107 52.048 97.514 96.549 219.429 4.652 28.602 21.607 53.424 45.947 74.831 73.104l0.652 0.858c51.503 65.676 82.594 149.5 82.594 240.586 0 0.338 0 0.676-0.001 1.014v-0.052c-1.966 221.017-181.59 399.428-402.885 399.428-0.962 0-1.923-0.003-2.884-0.010l0.148 0.001c-0.022 0-0.047 0-0.073 0-70.975 0-137.755-17.961-196.043-49.586l2.17 1.077c-2.136-1.197-4.688-1.902-7.404-1.902-5.744 0-10.752 3.153-13.387 7.823l-0.040 0.077c-1.18 2.090-1.875 4.588-1.875 7.249 0 5.711 3.202 10.674 7.909 13.192l0.080 0.039c60.382 32.953 132.255 52.342 208.653 52.37h0.009c0.848 0.006 1.851 0.009 2.855 0.009 238.067 0 431.31-191.916 433.456-429.476l0.001-0.204c0.001-0.295 0.001-0.644 0.001-0.992 0-98.015-33.471-188.212-89.606-259.786l0.692 0.916zM825.988 183.779c-108.076 85.519-138.24 55.355-188.357 5.325l-9.83-9.772c-23.903-23.611-62.844-18.344-115.624 15.419-50.295 34.767-94.311 72.049-134.397 113.18l-0.186 0.191c-129.902 127.883-171.476 206.087-130.809 246.199l9.772 9.509c50.907 49.328 81.627 78.994-5.237 185.52-18.548 28.487-47.781 48.686-81.886 54.974l-0.765 0.117h-2.37c-36.688 0-69.837-34.348-99.182-64.717-5.851-6.056-11.703-11.995-17.262-17.554-28.116-27.648-25.249-100.44 7.314-185.403 54.629-126.329 130.654-233.707 224.526-322.391l0.461-0.432c90.903-93.099 199.971-168.004 321.533-219.048l6.44-2.399c86.367-32.183 160.241-34.816 188.357-7.168 5.617 5.53 11.703 11.147 17.818 16.969 31.539 29.491 67.291 62.903 65.712 100.001-1.053 25.483-19.895 52.868-56.027 81.423z" />
<glyph unicode="&#xe93d;" glyph-name="star" d="M1022.976 570.283c-2.029 6.809-7.673 11.912-14.652 13.125l-0.111 0.016-331.52 50.603-148.224 315.733c-2.835 6.385-9.12 10.758-16.427 10.758s-13.592-4.373-16.381-10.644l-0.045-0.114-148.309-315.819-331.52-50.603c-7.090-1.23-12.734-6.332-14.729-13.010l-0.034-0.132c-0.593-1.8-0.935-3.873-0.935-6.025 0-5.349 2.113-10.205 5.549-13.779l-0.006 0.007 239.872-245.333-56.576-346.624c-0.183-1.008-0.287-2.168-0.287-3.353 0-6.274 2.931-11.864 7.499-15.474l0.041-0.032c2.899-2.348 6.632-3.769 10.698-3.769 3.164 0 6.127 0.861 8.667 2.362l-0.079-0.043 296.533 163.669 296.533-163.669c2.449-1.376 5.376-2.187 8.492-2.187 4.048 0 7.777 1.368 10.749 3.668l-0.040-0.030c4.613 3.625 7.548 9.205 7.548 15.47 0 1.198-0.107 2.37-0.313 3.508l0.018-0.119-56.491 346.624 239.872 245.333c3.436 3.581 5.552 8.452 5.552 13.816 0 2.167-0.345 4.254-0.984 6.207l0.040-0.141z" />
<glyph unicode="&#xe93e;" glyph-name="about" horiz-adv-x="838" d="M623.709 313.018h-363.055c-18.618 0-32.582-13.964-32.582-27.927s13.964-27.927 32.582-27.927h363.055c18.618 0 32.582 13.964 32.582 27.927s-13.964 27.927-32.582 27.927zM260.655 592.291c-18.618 0-32.582-13.964-32.582-27.927s13.964-27.927 32.582-27.927h363.055c18.618 0 32.582 13.964 32.582 27.927s-13.964 27.927-32.582 27.927h-363.055zM623.709 452.655h-363.055c-18.618 0-32.582-13.964-32.582-27.927s13.964-27.927 32.582-27.927h363.055c18.618 0 32.582 13.964 32.582 27.927s-13.964 27.927-32.582 27.927zM786.618 708.655l-214.109 204.8c-4.655 4.655-13.964 9.309-23.273 9.309h-386.327c-69.818-4.655-121.018-55.855-121.018-125.673v-702.836c0-65.164 55.855-121.018 121.018-121.018h516.655c65.164 0 121.018 55.855 121.018 121.018v591.127c-4.655 9.309-4.655 13.964-13.964 23.273zM586.473 811.055l97.745-93.091h-41.891c-32.582 0-55.855 23.273-55.855 55.855v37.236zM730.764 98.909c0-32.582-23.273-55.855-55.855-55.855h-512c-32.582 0-55.855 23.273-55.855 55.855v702.836c0 32.582 23.273 55.855 55.855 55.855h358.4v-83.782c0-65.164 55.855-121.018 121.018-121.018h93.091v-553.891z" />
<glyph unicode="&#xe93f;" glyph-name="contact" d="M842.432 569.754c-10.184 52.1-35.446 99.478-73.052 137.012-37.608 37.533-85.080 62.745-137.282 72.912-22.42 4.369-44.146-10.236-48.522-32.614-4.374-22.38 10.256-44.060 32.678-48.425 73.694-14.348 130.6-71.145 144.978-144.695 3.854-19.71 21.162-33.387 40.556-33.387 2.626 0 5.29 0.25 7.968 0.772 22.42 4.365 37.050 26.047 32.676 48.425zM1022.844 566.91c-11.258 99.997-56.746 194.229-128.084 265.336-71.336 71.109-165.81 116.389-266.018 127.499-22.71 2.517-43.156-13.813-45.678-36.473-2.522-22.662 13.838-43.072 36.544-45.591 169.922-18.839 301.932-150.426 321.024-319.995 2.376-21.091 20.278-36.676 41.054-36.676 1.542 0 3.104 0.086 4.672 0.261 22.702 2.549 39.038 22.979 36.486 45.639zM865.18 336.087c-0.124 0.016-0.248 0.034-0.372 0.050-40.026 5.268-79.502 15.085-117.238 29.135-47.82 17.945-102.206 6.37-138.54-29.486-0.056-0.056-0.112-0.11-0.166-0.166l-34.296-34.229c-85.266 53.743-157.512 125.848-211.358 210.946l34.298 34.231c0.054 0.056 0.108 0.11 0.164 0.166 35.928 36.261 47.524 90.535 29.58 138.176-14.114 37.754-23.948 77.155-29.228 117.103-0.014 0.126-0.034 0.254-0.052 0.379-9.182 64.829-65.564 113.247-131.096 112.714h-134.77c-3.886-0.004-7.824-0.182-11.706-0.533-72.114-6.503-125.482-70.349-118.964-142.322 0.020-0.216 0.040-0.429 0.064-0.645 15.368-144.426 65.298-285.203 144.394-407.115 71.784-112.702 169.402-210.128 282.324-281.778 121.584-78.658 261.98-128.487 406.026-144.111 0.254-0.030 0.508-0.054 0.76-0.076 3.922-0.351 7.898-0.531 11.842-0.531 0.166 0 0.33 0 0.494-0.002 72.408 0.295 131.076 59.328 130.782 131.425v134.204c1.37 66.297-47.092 123.191-112.942 132.463zM895.396 204.086v-134.833c0.11-26.74-21.6-48.581-48.38-48.691-1.43 0.008-2.85 0.054-4.27 0.172-131.156 14.294-258.976 59.711-369.674 131.359-0.106 0.070-0.214 0.138-0.322 0.206-102.858 65.233-191.77 153.973-257.13 256.629-0.064 0.102-0.128 0.202-0.194 0.305-72.060 111.013-117.57 239.203-131.622 370.732-2.246 26.514 17.456 49.978 44.042 52.376 1.434 0.128 2.886 0.196 4.29 0.196h134.926c0.292 0.002 0.588 0.006 0.886 0.004 24.042 0 44.644-17.775 48.088-41.557 6.1-46.036 17.442-91.433 33.742-135.034 6.638-17.63 2.378-37.664-10.854-51.082l-57.034-56.923c-13.166-13.138-15.912-33.441-6.708-49.597 67.674-118.784 166.354-217.27 285.37-284.814 16.188-9.182 36.528-6.447 49.696 6.697l57.024 56.913c13.44 13.216 33.53 17.47 51.284 10.809 43.598-16.236 89.094-27.556 135.22-33.644 24.36-3.507 42.244-24.63 41.632-49.198-0.008-0.341-0.012-0.683-0.012-1.024z" />
<glyph unicode="&#xe940;" glyph-name="logout" horiz-adv-x="1365" d="M535.868-63.686c96.845 0 191.1 27.251 272.582 78.807 79.233 50.135 143.138 120.95 184.808 204.788l-79.508 39.519c-71.834-144.538-216.632-234.324-377.883-234.324-232.546 0-421.734 189.188-421.734 421.734s189.188 421.734 421.734 421.734c161.247 0 306.046-89.786 377.883-234.324l79.508 39.519c-41.67 83.838-105.576 154.654-184.808 204.788-81.479 51.555-175.737 78.807-272.582 78.807-281.502 0-510.52-229.018-510.52-510.52s229.018-510.526 510.52-510.526zM422.116 491.236v-88.804h773.291l-101.831-101.774 62.805-62.805 208.953 209.010-208.953 208.953-62.805-62.805 101.831-101.774z" />
<glyph unicode="&#xe941;" glyph-name="package" d="M456.941 360.031l438.683 429.302 71.488-69.918-510.17-498.971-229.385 224.35 71.233 69.981 158.153-154.743zM946.688 448h77.312c0-281.472-230.528-512-512-512s-512 230.528-512 512c0 281.472 230.528 512 512 512 66.496 0 132.992-15.232 194.496-35.776l-68.288-68.544c-41.92 16.96-85.184 24.32-126.208 24.32-225.28 0-432-206.72-432-432s206.72-432 432-432c225.28 0 434.688 206.72 434.688 432z" />
<glyph unicode="&#xe942;" glyph-name="setting" d="M865.28 304.64c5.12 10.24 15.36 15.36 25.6 15.36h5.12c71.68 0 128 56.32 128 128s-56.32 128-128 128h-5.12c-10.24 0-20.48 5.12-25.6 15.36 0 5.12 0 5.12-5.12 10.24-5.12 10.24-5.12 25.6 5.12 30.72v0c0 0 0 0 0 0 25.6 25.6 35.84 56.32 35.84 92.16s-15.36 66.56-35.84 92.16c0 0 0 0 0 0-25.6 25.6-56.32 35.84-92.16 35.84 0 0 0 0 0 0-35.84 0-66.56-15.36-92.16-35.84v0c-10.24-10.24-20.48-10.24-30.72-5.12 0 0 0 0 0 0-10.24 5.12-15.36 15.36-15.36 25.6v-5.12c5.12 71.68-51.2 128-122.88 128s-128-56.32-128-128v-5.12c0-10.24-5.12-20.48-15.36-25.6-5.12 0-5.12 0-10.24-5.12-5.12 0-20.48 0-25.6 10.24v0c-25.6 25.6-61.44 35.84-92.16 35.84 0 0 0 0 0 0-35.84 0-66.56-10.24-92.16-35.84s-35.84-56.32-35.84-87.040c0-35.84 15.36-66.56 35.84-92.16v0c10.24-10.24 15.36-25.6 10.24-35.84 0 0 0 0 0 0-5.12-10.24-15.36-20.48-30.72-20.48v0c-71.68 0-128-56.32-128-128s56.32-128 128-128h5.12c10.24 0 20.48-5.12 25.6-15.36 0 0 0 0 0 0 5.12-10.24 5.12-25.6-5.12-30.72v0c0 0 0 0 0 0-25.6-25.6-35.84-56.32-35.84-92.16s15.36-66.56 35.84-92.16c0 0 0 0 0 0 51.2-51.2 128-51.2 179.2 0v0c10.24 10.24 20.48 10.24 30.72 5.12 0 0 0 0 0 0 10.24-5.12 20.48-15.36 20.48-25.6v-5.12c0-71.68 56.32-128 128-128s128 56.32 128 128v5.12c0 10.24 5.12 20.48 15.36 25.6 0 0 0 0 0 0 10.24 5.12 25.6 5.12 30.72-5.12v0c25.6-25.6 56.32-35.84 92.16-35.84 0 0 0 0 0 0 35.84 0 66.56 15.36 92.16 35.84 51.2 51.2 51.2 128 0 179.2v0c-5.12 15.36-10.24 30.72-5.12 40.96 0 0 0 0 0 0zM814.080 212.48c0 0 0 0 0 0v0c20.48-20.48 20.48-46.080 5.12-66.56-10.24-10.24-20.48-15.36-30.72-15.36 0 0 0 0 0 0-10.24 0-20.48 5.12-30.72 15.36l-5.12 5.12c0 0 0 0 0 0-30.72 30.72-81.92 40.96-122.88 20.48-40.96-15.36-66.56-56.32-66.56-102.4v-5.12c0-25.6-20.48-46.080-46.080-46.080s-46.080 20.48-46.080 46.080v5.12c0 0 0 0 0 0 0 46.080-30.72 87.040-71.68 102.4s-92.16 5.12-122.88-25.6c0 0 0 0 0 0l-5.12-5.12c-15.36-15.36-46.080-15.36-61.44 0 0 0 0 0 0 0-10.24 10.24-15.36 20.48-15.36 30.72s5.12 20.48 15.36 30.72c0 0 0 0 0 0v0c0 0 0 0 0 0 35.84 40.96 46.080 87.040 25.6 128-15.36 40.96-56.32 66.56-102.4 66.56h-5.12c-25.6 0-46.080 20.48-46.080 46.080s20.48 46.080 46.080 46.080h5.12c0 0 0 0 0 0 46.080 0 87.040 30.72 102.4 71.68s5.12 92.16-25.6 122.88c0 0 0 0 0 0v0c-10.24 10.24-15.36 20.48-15.36 35.84 0 10.24 5.12 20.48 15.36 30.72 5.12 5.12 15.36 10.24 30.72 10.24 0 0 0 0 0 0 10.24 0 20.48-5.12 30.72-15.36l5.12-5.12c0 0 0 0 0 0 25.6-25.6 71.68-35.84 112.64-20.48 5.12 0 5.12 0 10.24 5.12 40.96 15.36 66.56 56.32 66.56 102.4v5.12c0 25.6 20.48 46.080 46.080 46.080s46.080-20.48 46.080-46.080v-5.12c0-46.080 25.6-87.040 66.56-102.4s92.16-5.12 122.88 25.6c0 0 0 0 0 0l5.12 5.12c10.24 10.24 20.48 15.36 30.72 15.36 0 0 0 0 0 0 10.24 0 20.48-5.12 30.72-15.36 0 0 0 0 0 0 10.24-10.24 15.36-20.48 15.36-30.72s-5.12-20.48-15.36-30.72c0 0 0 0 0 0l-5.12-5.12c0 0 0 0 0 0-30.72-30.72-40.96-76.8-25.6-117.76 0-5.12 0-5.12 5.12-10.24 15.36-40.96 56.32-66.56 102.4-66.56h5.12c25.6 0 46.080-20.48 46.080-46.080s-20.48-46.080-46.080-46.080h-5.12c-46.080 0-87.040-25.6-102.4-66.56s-5.12-92.16 25.6-122.88zM512 627.2c-97.28 0-179.2-81.92-179.2-179.2s81.92-179.2 179.2-179.2 179.2 81.92 179.2 179.2-81.92 179.2-179.2 179.2zM512 355.84c-51.2 0-92.16 40.96-92.16 92.16s40.96 92.16 92.16 92.16c51.2 0 92.16-40.96 92.16-92.16s-40.96-92.16-92.16-92.16z" />
<glyph unicode="&#xe943;" glyph-name="video" d="M851.782 783.127v0c-88.436 88.436-209.455 139.636-339.782 139.636s-246.691-51.2-335.127-139.636c-88.436-88.436-139.636-209.455-139.636-335.127s51.2-246.691 139.636-339.782c88.436-88.436 209.455-139.636 335.127-139.636s246.691 51.2 339.782 139.636c88.436 88.436 139.636 209.455 139.636 339.782 0 125.673-51.2 246.691-139.636 335.127zM512 47.709c-223.418 0-400.291 181.527-400.291 400.291 0 223.418 181.527 400.291 400.291 400.291 223.418 0 400.291-181.527 400.291-400.291 0-223.418-176.873-400.291-400.291-400.291zM428.218 657.455c-9.309 9.309-18.618 9.309-27.927 4.655s-13.964-13.964-13.964-23.273v-377.018c0-9.309 4.655-18.618 13.964-23.273 4.655 0 9.309-4.655 13.964-4.655s9.309 0 13.964 4.655l293.236 190.836c9.309 4.655 13.964 13.964 13.964 23.273s-4.655 18.618-13.964 23.273l-293.236 181.527zM437.527 308.364v279.273l218.764-139.636-218.764-139.636z" />
<glyph unicode="&#xe944;" glyph-name="moon" d="M936.96 187.904c-9.216 14.336-26.624 20.48-43.008 16.384-28.672-8.192-58.368-12.288-89.088-12.288-118.784 1.024-226.304 61.44-288.768 161.792-47.104 76.8-62.464 167.936-40.96 256s74.752 162.816 152.576 209.92c12.288 7.168 25.6 14.336 39.936 20.48 15.36 7.168 24.576 22.528 22.528 39.936-2.048 16.384-14.336 30.72-30.72 33.792-29.696 6.144-60.416 8.192-91.136 8.192-88.064 0-174.080-24.576-248.832-70.656-108.544-66.56-184.32-171.008-214.016-294.912s-9.216-250.88 57.344-359.424c87.040-142.336 238.592-226.304 405.504-226.304 88.064 0 174.080 24.576 248.832 70.656 44.032 26.624 82.944 60.416 115.712 100.352 11.264 14.336 13.312 31.744 4.096 46.080zM400.384 628.224c-25.6-108.544-8.192-220.16 50.176-314.368 73.728-119.808 199.68-192.512 339.968-197.632-4.096-3.072-8.192-5.12-12.288-8.192-63.488-38.912-136.192-59.392-208.896-59.392-140.288 0-267.264 71.68-340.992 190.464-55.296 91.136-72.704 197.632-48.128 301.056s88.064 191.488 179.2 246.784v0c52.224 31.744 110.592 51.2 169.984 57.344-63.488-56.32-109.568-132.096-129.024-216.064z" />
<glyph unicode="&#xe945;" glyph-name="icon-locked" horiz-adv-x="870" d="M727.040 586.24v76.8c0 148.48-133.12 271.36-296.96 271.36s-296.96-122.88-296.96-271.36v-76.8c-61.44-20.48-102.4-76.8-102.4-143.36v-332.8c0-81.92 66.56-148.48 148.48-148.48h501.76c81.92 0 148.48 66.56 148.48 148.48v332.8c0 66.56-46.080 122.88-102.4 143.36zM112.64 442.88c0 35.84 30.72 61.44 61.44 61.44h501.76c35.84 0 61.44-30.72 61.44-61.44v-332.8c0-35.84-30.72-61.44-61.44-61.44h-501.76c-35.84 0-61.44 30.72-61.44 61.44v332.8zM215.040 591.36v71.68c0 102.4 97.28 189.44 215.040 189.44s215.040-81.92 215.040-189.44v-66.56h-430.080zM512 294.4c0-56.554-45.846-102.4-102.4-102.4s-102.4 45.846-102.4 102.4c0 56.554 45.846 102.4 102.4 102.4s102.4-45.846 102.4-102.4z" />
<glyph unicode="&#xe946;" glyph-name="list_h" horiz-adv-x="1252" d="M341.333 49.778v227.556h853.333v-227.556h-853.333zM1137.778 220.444h-739.556v-113.778h739.556v113.778zM341.333 561.778h853.333v-227.556h-853.333v227.556zM398.222 391.111h739.556v113.778h-739.556v-113.778zM341.333 846.222h853.333v-227.556h-853.333v227.556zM398.222 675.556h739.556v113.778h-739.556v-113.778zM56.889 277.333h227.556v-227.556h-227.556v227.556zM113.778 106.667h113.778v113.778h-113.778v-113.778zM56.889 561.778h227.556v-227.556h-227.556v227.556zM113.778 391.111h113.778v113.778h-113.778v-113.778zM56.889 846.222h227.556v-227.556h-227.556v227.556zM113.778 675.556h113.778v113.778h-113.778v-113.778z" />
<glyph unicode="&#xe947;" glyph-name="list_v" horiz-adv-x="1325" d="M903.529 56.471v361.412h361.412v-361.412h-361.412zM1204.706 357.647h-240.941v-240.941h240.941v240.941zM903.529 839.529h361.412v-361.412h-361.412v361.412zM963.765 538.353h240.941v240.941h-240.941v-240.941zM481.882 417.882h361.412v-361.412h-361.412v361.412zM542.118 116.706h240.941v240.941h-240.941v-240.941zM481.882 839.529h361.412v-361.412h-361.412v361.412zM542.118 538.353h240.941v240.941h-240.941v-240.941zM60.235 417.882h361.412v-361.412h-361.412v361.412zM120.471 116.706h240.941v240.941h-240.941v-240.941zM60.235 839.529h361.412v-361.412h-361.412v361.412zM120.471 538.353h240.941v240.941h-240.941v-240.941z" />
<glyph unicode="&#xe948;" glyph-name="random" horiz-adv-x="1129" d="M605.301 681.322h189.327v-201.858l317.089 229.099-317.089 230.461v-201.858h-189.327c-160.166-0.155-289.965-129.953-290.12-290.105v-0.015c-0.155-128.572-104.341-232.758-232.898-232.913h-43.601c-15.797 0-28.603-12.806-28.603-28.603s12.806-28.603 28.603-28.603h43.586c160.166 0.155 289.965 129.953 290.12 290.105v0.015c-0.002 0.324-0.003 0.707-0.003 1.090 0 128.69 104.247 233.032 232.901 233.185h0.015zM1013.921 708.563l-163.448-118.227v236.454zM38.683 681.322h43.586c0.006 0 0.012 0 0.019 0 59.765 0 114.266-22.536 155.469-59.575l-0.213 0.189c5.036-4.518 11.728-7.28 19.065-7.28 8.423 0 15.996 3.641 21.23 9.434l0.022 0.025c4.518 5.036 7.28 11.728 7.28 19.065 0 8.423-3.641 15.996-9.434 21.23l-0.025 0.022c-50.969 45.809-118.734 73.824-193.041 73.824-0.131 0-0.261 0-0.392 0h-43.566c-15.797 0-28.603-12.806-28.603-28.603s12.806-28.603 28.603-28.603v0zM794.628 214.951h-189.327c-0.046 0-0.1 0-0.154 0-59.189 0-113.215 22.104-154.274 58.507l0.242-0.211c-5.049 4.43-11.71 7.133-19.002 7.133-0.599 0-1.193-0.018-1.783-0.054l0.081 0.004c-0.771 0.077-1.666 0.122-2.571 0.122-15.045 0-27.241-12.196-27.241-27.241 0-9.631 4.998-18.095 12.542-22.939l0.108-0.065c50.598-44.727 117.411-72.14 190.622-72.462h189.394v-201.858l317.089 230.461-317.089 230.461zM1014.193 187.709l-163.448-118.227v236.182z" />
<glyph unicode="&#xe949;" glyph-name="replay" horiz-adv-x="893" d="M858.152 416.808c-19.047 0-34.488-15.441-34.488-34.488v0c0-0.209 0.001-0.456 0.001-0.703 0-208.401-168.942-377.343-377.343-377.343s-377.343 168.942-377.343 377.343c0 196.258 149.828 357.521 341.342 375.648l1.513 0.116v-95.097c0.036-19.020 15.463-34.426 34.488-34.426 4.374 0 8.558 0.814 12.408 2.299l-0.236-0.080 348.434 131.614c13.065 5.106 22.151 17.595 22.151 32.206s-9.086 27.1-21.916 32.125l-0.234 0.081-348.687 131.867c-3.543 1.346-7.64 2.125-11.919 2.125-19.047 0-34.488-15.441-34.488-34.488 0-0.034 0-0.068 0-0.102v0.005-98.393c-230.739-18.965-410.817-210.906-410.817-444.906 0-246.496 199.824-446.32 446.32-446.32s446.32 199.824 446.32 446.32c0 0.038 0 0.075 0 0.113v-0.005c0 0.004 0 0.010 0 0.015 0 19.047-15.441 34.488-34.488 34.488-0.357 0-0.712-0.005-1.066-0.016l0.052 0.001zM480.808 712.242v163.566l216.313-81.656z" />
<glyph unicode="&#xe94a;" glyph-name="crown" horiz-adv-x="1409" d="M1280.283 725.813c-71.208-0.081-128.911-57.784-128.992-128.984v-0.008c-0.002-0.276-0.003-0.603-0.003-0.93 0-10.072 1.206-19.863 3.482-29.235l-0.173 0.844-205.858-111.805-139.898 242.355c29.095 27.295 47.221 65.984 47.221 108.908 0 0.471-0.002 0.941-0.007 1.411l0.001-0.072c0 83.757-67.898 151.655-151.655 151.655s-151.655-67.898-151.655-151.655v0c-0.004-0.398-0.006-0.868-0.006-1.339 0-42.923 18.126-81.613 47.141-108.833l0.081-0.075-139.898-242.355-206.235 111.994c2.26 8.721 3.598 18.75 3.682 29.078v0.053c0 71.24-57.751 128.991-128.992 128.991s-128.992-57.751-128.992-128.992c0-71.207 57.698-128.938 128.892-128.991h0.005l103.873-361.856c0-0.331 0-0.661 0-0.992-14.262-16.801-22.985-38.695-23.135-62.622v-0.032c0-58.641 51.937-106.328 115.394-106.328h759.312c63.646 0 115.394 47.687 115.394 106.328-0.072 24.099-8.788 46.149-23.209 63.226l0.12-0.146 104.204 362.47c71.24 0 128.992 57.751 128.992 128.992s-57.751 128.992-128.992 128.992v0zM87.301 553.951c-11.204 10.866-18.162 26.055-18.178 42.868v0.003c0 32.23 26.128 58.358 58.358 58.358s58.358-26.128 58.358-58.358c0-32.23-26.128-58.358-58.358-58.358v0h-0.567c-0.538-0.019-1.169-0.030-1.803-0.030-14.74 0-28.095 5.925-37.816 15.522l0.006-0.006zM325.406 78.023h758.463c25.071 0 46.271-16.336 46.271-35.695s-21.2-35.695-46.271-35.695h-758.463c-25.071 0-46.271 16.336-46.271 35.695s21.2 35.695 46.271 35.695zM503.832 391.767l157.179 270.778c12.953-3.836 27.835-6.044 43.233-6.044 0.072 0 0.144 0 0.216 0h-0.011c0.266-0.002 0.581-0.003 0.896-0.003 15.175 0 29.833 2.209 43.672 6.322l-1.083-0.276 157.321-270.967 0.897-1.369c6.435-9.651 17.182-15.988 29.424-16.241l0.038-0.001c4.416 0.158 8.564 1.132 12.354 2.776l-0.22-0.085 2.975 1.039 1.18 0.378 236.075 128.331c7.087-7.194 14.943-13.595 23.446-19.079l0.54-0.326-95.28-337.068h-824.422l-96.744 337.068c9.042 5.811 16.899 12.211 23.969 19.388l0.017 0.017 237.020-127.953c4.868-2.847 10.692-4.582 16.91-4.721l0.040-0.001c0.116-0.001 0.252-0.002 0.389-0.002 12.935 0 24.183 7.224 29.928 17.858l0.089 0.18zM704.59 725.813c-45.581 0-82.532 36.951-82.532 82.532s36.951 82.532 82.532 82.532c45.581 0 82.532-36.951 82.532-82.532v0c-0.603-45.32-37.169-81.902-82.425-82.531l-0.060-0.001zM1338.594 594.744c0.019-0.532 0.030-1.157 0.030-1.784 0-14.745-5.924-28.107-15.522-37.835l0.006 0.006c-10.88-11.21-26.086-18.17-42.917-18.178h-0.002c-32.23 0-58.358 26.128-58.358 58.358s26.128 58.358 58.358 58.358c32.23 0 58.358-26.128 58.358-58.358v0z" />
<glyph unicode="&#xe94b;" glyph-name="tt" d="M511.502-0.057c-246.762 0-447.56 200.799-447.56 447.56s200.799 447.56 447.56 447.56c246.762 0 447.56-200.799 447.56-447.56s-200.799-447.56-447.56-447.56zM511.502 959.006c-282.479 0-511.503-229.024-511.503-511.503 0-282.467 229.024-511.503 511.503-511.503 282.467 0 511.503 229.036 511.503 511.503 0 282.479-229.036 511.503-511.503 511.503zM617.874 447.667c-19.66 11.43-46.832 23.586-81.456 36.42-31.503 11.802-52.123 21.636-61.683 29.58-9.618 8.003-14.428 19.431-14.428 34.347 0 14.61 4.987 27.070 14.971 37.334 9.919 10.276 23.144 15.402 39.611 15.402 32.828 0 56.987-22.973 72.684-68.931l80.309 33.486c-19.172 67.041-61.373 104.5-126.543 112.444v54.694h-58.312v-54.685c-43.161-6.177-74.779-23.107-94.86-50.788-20.083-27.74-30.18-58.972-30.18-93.625 0-26.393 5.646-49.615 16.888-69.542 11.244-19.861 25.917-35.32 43.952-46.32 18.035-11.125 43.105-22.249 75.144-33.555 35.646-12.833 58.668-23.403 69.010-31.778 10.342-8.306 15.507-20.597 15.507-36.791 0-15.64-5.165-28.959-15.507-40.028-10.342-11.056-26.573-16.556-48.516-16.556-46.945 0-74.599 25.791-82.959 77.43l-90.173-23.902c18.213-82.126 65.403-127.236 141.695-135.18v-70.459h58.312v70.833c45.753 4.889 80.733 21.14 104.966 48.764 24.227 27.556 36.36 62.028 36.36 103.402 0 26.945-5.889 50.473-17.611 70.64-11.778 20.11-27.475 35.931-47.181 47.361z" />
<glyph unicode="&#xe94c;" glyph-name="income" horiz-adv-x="1229" d="M1170.286 610.046v163.094c0 104.643-80.456 186.86-182.857 186.86h-804.571c-102.401-0.004-182.857-82.221-182.857-186.864v-650.276c0-104.643 80.456-186.86 182.857-186.86h804.571c102.401 0 182.857 82.217 182.857 186.86v155.616c34.45 23.246 58.514 63.008 58.514 105.987v119.591c0 43.056-24.064 82.745-58.514 105.992zM1155.658 384.468c0-29.896-21.941-52.322-51.201-52.322h-373.028c-29.255 0-51.201 22.422-51.201 52.322v119.591c0 29.896 21.941 52.322 51.201 52.322h373.028c29.255 0 51.201-22.422 51.201-52.322v-119.591zM987.428 10.747h-804.571c-58.514 0-109.715 52.322-109.715 112.117v650.271c0 59.795 51.201 112.117 109.715 112.117h804.571c58.514 0 109.715-52.322 109.715-112.117v-142.012h-365.714c-65.828 0-124.343-59.795-124.343-127.065v-119.591c0-67.269 58.514-127.065 124.343-127.065h365.714v-134.539c0-59.795-51.201-112.117-109.715-112.117zM757.76 472.381c-6.827-6.502-6.827-19.505-6.827-26.006s0-13.003 6.827-19.505c6.827-6.502 20.48-13.003 27.307-13.003s13.653 6.502 20.48 13.003c6.827 0 13.653 13.003 13.653 19.505 0 13.003-6.827 19.505-13.653 26.006-13.649 13.003-34.133 13.003-47.787 0z" />
</font>
</defs>
</svg>
